<svg xmlns="http://www.w3.org/2000/svg" viewBox="-767 469 64 64" enable-background="new -767 469 64 64"><style type="text/css">.st0{fill:#00B2F6;}</style><path class="st0" d="M-728 491c0-3.9-3.1-7-7-7s-7 3.1-7 7 3.1 7 7 7 7-3.1 7-7zm-12 0c0-2.8 2.2-5 5-5s5 2.2 5 5-2.2 5-5 5-5-2.2-5-5zm5 42.5l.8-.9c.9-1 21.3-25.2 21.3-40.9-.1-12.5-9.9-22.7-22-22.7s-22 10.2-22 22.7c0 15.7 20.3 39.9 21.2 40.9l.7.9zm0-62.5c11 0 20 9.3 20 20.7.1 13.3-16.3 34.1-20 38.7-3.7-4.6-20-25.4-20-38.7 0-11.4 9-20.7 20-20.7z"/></svg>