<svg xmlns="http://www.w3.org/2000/svg" viewBox="7 -7 64 64" enable-background="new 7 -7 64 64"><style type="text/css">.st0{fill:#FFFFFF;}</style><path class="st0" d="M33 40.4L23.6 31l4.7-4.7L69.1-7.3 71.4-5 37.7 35.7 33 40.4zM26.4 31l6.6 6.6 3.3-3.3 31-37.6-37.7 31.1-3.2 3.2zm3.277-4.738l7.99 7.99-1.414 1.414-7.99-7.99zM8 57H6.8l.2-1.2c.1-.7 2.9-16.8 9.4-21.6 4.1-3.1 8.2-4.1 8.4-4.2l.5 1.9s-3.9 1-7.6 3.8c-5 3.8-7.7 15.5-8.5 19.3 15.3-.8 22.8-16.3 22.9-16.4l1.8.9C33.8 39.6 25.4 57 8 57z"/></svg>