<svg xmlns="http://www.w3.org/2000/svg" viewBox="-563 388.9 64 64" enable-background="new -563 388.9 64 64"><style type="text/css">.st0{fill:#FFFFFF;}</style><path class="st0" d="M-510 393.9h-8v4h-26v-4h-8v4h-11v50h64v-50h-11v-4zm-6 2h4v6h-4v-6zm-34 0h4v6h-4v-6zm-11 50v-38h60v38h-60zm60-46v6h-60v-6h9v4h8v-4h26v4h8v-4h9zm-53 24h12v-12h-12v12zm2-10h8v8h-8v-8zm-2 28h12v-12h-12v12zm2-10h8v8h-8v-8zm32-8h12v-12h-12v12zm2-10h8v8h-8v-8zm-2 28h12v-12h-12v12zm2-10h8v8h-8v-8zm-19-8h12v-12h-12v12zm2-10h8v8h-8v-8zm-2 28h12v-12h-12v12zm2-10h8v8h-8v-8z"/></svg>