<svg xmlns="http://www.w3.org/2000/svg" width="57.59mm" height="66.91mm" viewBox="0 0 163.24 189.68"><title>christmas-logo-icon</title><path d="M18.35 416.36a23.06 23.06 0 0 0 19.39-39.21l-.05-.07-.1-.08a23.07 23.07 0 0 0-9.94-5.72v-4.18a3.76 3.76 0 0 0-3.75-3.75h-5a3.76 3.76 0 0 0-3.75 3.75v4.74a.75.75 0 1 0 1.5 0v-4.74a2.25 2.25 0 0 1 2.25-2.25h5a2.25 2.25 0 0 1 2.25 2.25v3.81a23.09 23.09 0 0 0-4.65-.47 23.42 23.42 0 0 0-2.39.12.75.75 0 0 0 .15 1.49 21.88 21.88 0 0 1 2.24-.11L-.06 392.86a21.57 21.57 0 0 1 13.7-19.45.75.75 0 1 0-.55-1.4 23.07 23.07 0 0 0 5.26 44.35zm24.72-22.86a21.59 21.59 0 0 1-21.57 21.57h-1.31l22.86-22.19c.01.18.02.4.02.62zm-.16-2.5a.74.74 0 0 0-.23.15l-24.44 23.68a21.39 21.39 0 0 1-6.24-2l29.14-28.23a21.39 21.39 0 0 1 1.77 6.4zm-2.48-7.77l-29.81 28.89a21.7 21.7 0 0 1-4.41-3.41l30.92-30a21.68 21.68 0 0 1 3.31 4.48zM0 394.92L23.56 372a21.4 21.4 0 0 1 6.31 1.59l-28.48 27.7A21.41 21.41 0 0 1 0 394.92zm31.34-20.61a21.66 21.66 0 0 1 4.75 3.31L5.2 407.6a21.63 21.63 0 0 1-3.2-4.83zm-14.18-13.38a.75.75 0 1 0 1.5 0 3 3 0 1 1 6 0 .75.75 0 1 0 1.5 0 4.5 4.5 0 1 0-9 0zm61.43 55.69a23.07 23.07 0 0 0 6.25-45.28V367a3.76 3.76 0 0 0-3.75-3.75h-5a3.76 3.76 0 0 0-3.76 3.75v4.74a.75.75 0 1 0 1.5 0V367a2.25 2.25 0 0 1 2.25-2.25h5a2.25 2.25 0 0 1 2.26 2.25v4a23.08 23.08 0 0 0-4.75-.49 23.42 23.42 0 0 0-2.39.12.75.75 0 0 0 .15 1.49 21.88 21.88 0 0 1 2.24-.11 21.53 21.53 0 1 1-7.86 1.47.75.75 0 1 0-.55-1.4 23.07 23.07 0 0 0 8.41 44.54zm8.05-40.48a.75.75 0 1 0-.73 1.31 21.79 21.79 0 0 1 9.09 9.78.75.75 0 1 0 1.36-.63 23.3 23.3 0 0 0-9.72-10.46z" transform="translate(1.57 -356.38)" fill="#e6c67d"/><circle cx="84.59" cy="19.07" r="1.48" fill="#e6c67d"/><path d="M68.25 405.56a4.5 4.5 0 1 0 4.5-4.5 4.51 4.51 0 0 0-4.5 4.5zm7.5 0a3 3 0 1 1-3-3 3 3 0 0 1 3 3zm6.34-5.17a2.08 2.08 0 1 0 2.08 2.08 2.09 2.09 0 0 0-2.08-2.08zm0 2.67a.58.58 0 1 1 .58-.58.58.58 0 0 1-.58.58zm-7.59-13.51a4.76 4.76 0 1 0 4.76-4.76 4.76 4.76 0 0 0-4.76 4.76zm8 0a3.25 3.25 0 1 1-3.25-3.25 3.26 3.26 0 0 1 3.26 3.25zm10.83 5.31a3.1 3.1 0 1 0 3.1 3.1 3.11 3.11 0 0 0-3.1-3.1zm0 4.7a1.6 1.6 0 1 1 1.6-1.6 1.6 1.6 0 0 1-1.6 1.6zM68 382.7a3.48 3.48 0 1 0 3.48 3.48A3.48 3.48 0 0 0 68 382.7zm0 5.46a2 2 0 1 1 2-2 2 2 0 0 1-2 1.99zm6.09-27.28a.75.75 0 1 0 1.5 0 3 3 0 1 1 6 0 .75.75 0 1 0 1.5 0 4.5 4.5 0 1 0-9 0zm42.45 19.52a23.07 23.07 0 1 0 25.21-9.06V367a3.76 3.76 0 0 0-3.75-3.75h-5a3.76 3.76 0 0 0-3.75 3.75v4.74a.75.75 0 1 0 1.5 0V367a2.25 2.25 0 0 1 2.25-2.25h5a2.25 2.25 0 0 1 2.25 2.25v4a23.08 23.08 0 0 0-4.75-.49 23.42 23.42 0 0 0-2.39.12.75.75 0 0 0 .15 1.49 21.89 21.89 0 0 1 2.24-.11 21.53 21.53 0 1 1-7.86 1.47.75.75 0 0 0-.55-1.4 23 23 0 0 0-10.55 8.32zm35.37 6.83a.75.75 0 1 0 1.36-.63 23.3 23.3 0 0 0-9.73-10.45.75.75 0 1 0-.73 1.31 21.79 21.79 0 0 1 9.1 9.77z" transform="translate(1.57 -356.38)" fill="#e6c67d"/><circle cx="141.51" cy="19.07" r="1.48" fill="#e6c67d"/><path d="M131 360.88a.75.75 0 1 0 1.5 0 3 3 0 1 1 6 0 .75.75 0 1 0 1.5 0 4.5 4.5 0 1 0-9 0zM21.5 482a23.07 23.07 0 0 0 6.25-45.28v-4.3a3.76 3.76 0 0 0-3.75-3.73h-5a3.76 3.76 0 0 0-3.75 3.75v4.74a.75.75 0 1 0 1.5 0v-4.74A2.25 2.25 0 0 1 19 430.2h5a2.25 2.25 0 0 1 2.25 2.25v3.94a23.08 23.08 0 0 0-4.75-.49 23.44 23.44 0 0 0-2.39.12.75.75 0 0 0 .15 1.49 21.9 21.9 0 0 1 2.24-.11 21.6 21.6 0 0 1 20.71 15.56h-.05a.74.74 0 0 0-.26 0H.78a21.6 21.6 0 0 1 12.86-14.09.75.75 0 1 0-.55-1.4A23.07 23.07 0 0 0 21.5 482zm21-27.58h.12a21.54 21.54 0 0 1-.45 10.77h-5.62zm-1.71 0l-5.5 10-5.84-10h11.31zM34 465.21H22.27l6-9.81zm-6.91-10.76l-6.14 10.09-6.36-10.09h12.5zm-7.48 10.76H8.11l5.29-9.79zm-7.35-10.76l-5.38 10-5.56-10h10.9zM.86 465.22A21.49 21.49 0 0 1-.07 459a21.77 21.77 0 0 1 .26-3.37l5.38 9.63H.86zm6 1.5h34.76a21.56 21.56 0 0 1-40.24 0h5.47zm29.94-15.99a.75.75 0 1 0 1.32-.72 19.57 19.57 0 0 0-8.73-8.22.75.75 0 1 0-.64 1.36 18.06 18.06 0 0 1 8.05 7.58z" transform="translate(1.57 -356.38)" fill="#e6c67d"/><circle cx="27.16" cy="84.72" r="1.48" fill="#e6c67d"/><path d="M21.46 421.78a4.5 4.5 0 0 0-4.5 4.5.75.75 0 1 0 1.5 0 3 3 0 1 1 6 0 .75.75 0 1 0 1.5 0 4.5 4.5 0 0 0-4.5-4.5zm48.72 15.69a23.08 23.08 0 1 0 14.65-.72v-4.3a3.76 3.76 0 0 0-3.75-3.75h-5a3.76 3.76 0 0 0-3.75 3.75v4.74a.75.75 0 1 0 1.5 0v-4.74a2.25 2.25 0 0 1 2.25-2.25h5a2.25 2.25 0 0 1 2.25 2.25v3.94a23.08 23.08 0 0 0-4.75-.49 23.42 23.42 0 0 0-2.39.12.75.75 0 0 0 .15 1.49 21.88 21.88 0 0 1 2.24-.11 21.53 21.53 0 1 1-7.86 1.47.75.75 0 1 0-.54-1.4zM95 452.63a.75.75 0 1 0 1.36-.63 23.3 23.3 0 0 0-9.72-10.45.75.75 0 0 0-.73 1.31 21.79 21.79 0 0 1 9.09 9.77z" transform="translate(1.57 -356.38)" fill="#e6c67d"/><circle cx="84.59" cy="84.47" r="1.48" fill="#e6c67d"/><path d="M75.59 426.28a3 3 0 1 1 6 0 .75.75 0 1 0 1.5 0 4.5 4.5 0 1 0-9 0 .75.75 0 1 0 1.5 0zm3.25 19.53a2.58 2.58 0 0 0-2.32 1.44l-2.31 4.67a1.09 1.09 0 0 1-.82.6l-5.16.75a2.59 2.59 0 0 0-1.44 4.42l3.73 3.64a1.09 1.09 0 0 1 .31 1l-.83 5.1a2.59 2.59 0 0 0 3.76 2.73l4.61-2.42a1.09 1.09 0 0 1 1 0l4.63 2.42a2.59 2.59 0 0 0 3.76-2.73l-.88-5.14a1.09 1.09 0 0 1 .31-1l3.73-3.64a2.59 2.59 0 0 0-1.44-4.42l-5.16-.75a1.09 1.09 0 0 1-.82-.6l-2.31-4.67a2.58 2.58 0 0 0-2.35-1.4zm3.28 6.78a2.59 2.59 0 0 0 2 1.42l5.16.75a1.09 1.09 0 0 1 .6 1.86l-3.73 3.64a2.59 2.59 0 0 0-.75 2.29l.88 5.13a1.09 1.09 0 0 1-1.58 1.15l-4.61-2.42a2.59 2.59 0 0 0-2.41 0L73 468.83a1.09 1.09 0 0 1-1.58-1.15l.88-5.14a2.59 2.59 0 0 0-.75-2.29l-3.73-3.64a1.09 1.09 0 0 1 .6-1.86l5.16-.75a2.59 2.59 0 0 0 2-1.42l2.31-4.67a1.09 1.09 0 0 1 2 0zM21.5 546.06a23.07 23.07 0 0 0 6.25-45.28v-4.3a3.76 3.76 0 0 0-3.75-3.76h-5a3.76 3.76 0 0 0-3.75 3.75v4.74a.75.75 0 1 0 1.5 0v-4.74a2.25 2.25 0 0 1 2.25-2.25h5a2.25 2.25 0 0 1 2.25 2.25v3.94a23.08 23.08 0 0 0-4.75-.49 23.42 23.42 0 0 0-2.39.12.75.75 0 0 0 .15 1.49 21.88 21.88 0 0 1 2.24-.11 21.53 21.53 0 1 1-7.86 1.47.75.75 0 1 0-.55-1.4 23.07 23.07 0 0 0 8.41 44.57zm8.05-40.49a.75.75 0 1 0-.73 1.31 21.79 21.79 0 0 1 9.09 9.77.75.75 0 1 0 1.36-.63 23.3 23.3 0 0 0-9.72-10.45z" transform="translate(1.57 -356.38)" fill="#e6c67d"/><circle cx="27.51" cy="148.5" r="1.48" fill="#e6c67d"/><path d="M11.17 535a4.5 4.5 0 1 0 4.5-4.5 4.51 4.51 0 0 0-4.5 4.5zm7.5 0a3 3 0 1 1-3-3 3 3 0 0 1 3 3zm6.33-5.17a2.08 2.08 0 1 0 2.08 2.08 2.09 2.09 0 0 0-2.08-2.08zm0 2.67a.58.58 0 1 1 .58-.58.58.58 0 0 1-.58.57zM17.42 519a4.76 4.76 0 1 0 4.76-4.76 4.76 4.76 0 0 0-4.76 4.76zm8 0a3.25 3.25 0 1 1-3.25-3.25 3.26 3.26 0 0 1 3.26 3.25zm10.82 5.29a3.1 3.1 0 1 0 3.1 3.1 3.11 3.11 0 0 0-3.1-3.1zm0 4.7a1.6 1.6 0 1 1 1.6-1.6 1.6 1.6 0 0 1-1.6 1.61zm-25.35-16.86a3.48 3.48 0 1 0 3.48 3.48 3.48 3.48 0 0 0-3.48-3.48zm0 5.46a2 2 0 1 1 2-2 2 2 0 0 1-2 2zM17 490.31a.75.75 0 1 0 1.5 0 3 3 0 1 1 6 0 .75.75 0 1 0 1.5 0 4.5 4.5 0 1 0-9 0zm42.63 19.52a23.07 23.07 0 1 0 25.21-9.06v-4.3a3.76 3.76 0 0 0-3.75-3.75h-5a3.76 3.76 0 0 0-3.75 3.75v4.74a.75.75 0 1 0 1.5 0v-4.74a2.25 2.25 0 0 1 2.25-2.25h5a2.25 2.25 0 0 1 2.25 2.25v3.94a23.08 23.08 0 0 0-4.75-.49 23.42 23.42 0 0 0-2.39.12.75.75 0 0 0 .15 1.49 21.89 21.89 0 0 1 2.24-.11 21.53 21.53 0 1 1-7.86 1.47.75.75 0 0 0-.55-1.4 23 23 0 0 0-10.55 8.34zM95 516.66a.75.75 0 1 0 1.36-.63 23.3 23.3 0 0 0-9.73-10.45.75.75 0 1 0-.73 1.31 21.79 21.79 0 0 1 9.1 9.77z" transform="translate(1.57 -356.38)" fill="#e6c67d"/><circle cx="84.59" cy="148.5" r="1.48" fill="#e6c67d"/><path d="M74.09 490.31a.75.75 0 1 0 1.5 0 3 3 0 1 1 6 0 .75.75 0 1 0 1.5 0 4.5 4.5 0 1 0-9 0zm58.68 55.48a23.06 23.06 0 0 0 19.39-39.21l-.05-.07-.11-.09a23.07 23.07 0 0 0-9.94-5.72v-4.18a3.76 3.76 0 0 0-3.75-3.75h-5a3.76 3.76 0 0 0-3.75 3.75v4.74a.75.75 0 1 0 1.5 0v-4.74a2.25 2.25 0 0 1 2.25-2.25h5a2.25 2.25 0 0 1 2.25 2.25v3.81a23.09 23.09 0 0 0-4.65-.47 23.42 23.42 0 0 0-2.39.12.75.75 0 0 0 .15 1.49 21.88 21.88 0 0 1 2.24-.11l-21.55 20.94a21.57 21.57 0 0 1 13.7-19.45.75.75 0 1 0-.55-1.4 23.07 23.07 0 0 0 5.26 44.34zm24.71-22.85a21.59 21.59 0 0 1-21.57 21.57h-1.31l22.86-22.19c.01.18.02.4.02.62zm-.16-2.55a.74.74 0 0 0-.23.15l-24.44 23.72a21.39 21.39 0 0 1-6.24-2L155.55 514a21.39 21.39 0 0 1 1.78 6.39zm-2.48-7.77L125 541.55a21.7 21.7 0 0 1-4.41-3.41l30.92-30a21.68 21.68 0 0 1 3.34 4.48zm-40.44 11.73l23.6-22.88a21.4 21.4 0 0 1 6.31 1.59l-28.48 27.67a21.41 21.41 0 0 1-1.43-6.38zm31.34-20.61a21.66 21.66 0 0 1 4.75 3.31l-30.87 30a21.63 21.63 0 0 1-3.17-4.83zm-14.17-13.38a.75.75 0 1 0 1.5 0 3 3 0 1 1 6 0 .75.75 0 1 0 1.5 0 4.5 4.5 0 1 0-9 0z" transform="translate(1.57 -356.38)" fill="#e6c67d"/><path d="M161.54 439.25l.05-.08v-.18a.55.55 0 0 0 0-.06v-.16l-.05-.07H161l-18.2 4.91-4.88-18.61v-.09l-.06-.07h-.59l-.06.07v.09L132 443.27l-18.2-4.91h-.38l-.06.08v.23a.56.56 0 0 0 0 .06v.36l.05.08 13.36 13.31-13.52 13.42a.56.56 0 0 0 .54.93l.82-.22 17.39-4.69 4.85 18.22v.09l.06.07h.59l.06-.07v-.09l4.85-18.22 18.2 4.91h.35l.1-.08a.55.55 0 0 0 .08-.11v-.23a.56.56 0 0 0 0-.06v-.19l-.05-.08-13.36-13.31 13.36-13.31zM127.79 453a.56.56 0 0 0 0-.79l-10.74-10.7 19.33 11.16-19.9 11.6zm9 22.76l-3.9-14.65a.56.56 0 0 0-.54-.41h-.14l-13.88 3.75 18.46-10.76v22.05zm0-24.11l-19.21-11.09 14.64 3.95a.56.56 0 0 0 .68-.39l3.9-14.65v22.19zm1.11-22.19l3.9 14.65a.56.56 0 0 0 .68.39l14.7-4-19.28 11.23v-22.29zm4.58 31.26a.56.56 0 0 0-.68.39l-3.9 14.65v-22.2l19.21 11.09zm4.45-8.5a.56.56 0 0 0 0 .79l10.74 10.7-19.11-11 19.06-11.11z" transform="translate(1.57 -356.38)" fill="#e94421"/></svg>