<svg xmlns="http://www.w3.org/2000/svg" viewBox="7 -7 64 64" enable-background="new 7 -7 64 64"><style type="text/css">.st0{fill:#FFFFFF;}</style><path class="st0" d="M46.4 56.8H31.6v-9.2l-3.9-1.3-6.3 6.3-9.9-9.9 6.3-6.3-1.3-4H7.3V17.6h9.2l1.3-3.9-6.3-6.3 9.9-9.9 6.3 6.3 3.9-1.3v-9.2h14.7v9.2l4 1.3 6.3-6.3 9.9 9.9-6.3 6.3 1.3 3.9h9.2v14.7h-9.2l-1.3 4 6.3 6.3-9.9 9.9-6.3-6.3-4 1.3v9.3zm-11.8-3h8.7v-8.4l7.8-2.6 5.4 5.4 5.7-5.7-5.4-5.4 2.6-7.8h8.4v-8.7h-8.4l-2.6-7.8 5.4-5.4-5.7-5.7-5.4 5.4-7.8-2.6v-8.4h-8.7v8.4l-7.8 2.6-5.4-5.5-5.7 5.7 5.5 5.4-2.6 7.8h-8.4v8.7h8.4l2.6 7.8-5.4 5.4 5.7 5.7 5.4-5.4 7.8 2.6v8.5zM39 32.4c-4.1 0-7.4-3.3-7.4-7.4s3.3-7.4 7.4-7.4 7.4 3.3 7.4 7.4-3.3 7.4-7.4 7.4zm0-11.8c-2.4 0-4.4 2-4.4 4.4s2 4.4 4.4 4.4 4.4-2 4.4-4.4-2-4.4-4.4-4.4z"/></svg>