<svg xmlns="http://www.w3.org/2000/svg" viewBox="0 0 50 50" enable-background="new 0 0 50 50"><path d="M16.8 2.1c.2 0 .3.1.3.3l.2 1.8.1.7.7.1c.9.2 1.8.6 2.6 1.1l.6.3.5-.4 1.4-1.1c.1-.1.1-.1.2-.1 0 0 .1 0 .2.1l2.2 2.2c.1.1.1.3 0 .4L24.7 9l-.4.5.3.6c.4.8.8 1.6 1 2.5l.2.7.7.1 1.8.2c.2 0 .3.2.3.3V17c0 .2-.1.3-.3.3l-1.9.2-.7.1-.2.7c-.2.9-.6 1.7-1.1 2.5l-.3.6.4.5 1.2 1.5c.1.1.1.3 0 .4L23.6 26c-.1.1-.2.1-.2.1s-.1 0-.2-.1l-1.5-1.2-.5-.4-.6.3c-.8.5-1.7.8-2.6 1l-.7.2-.1.7-.2 2c0 .2-.2.3-.3.3h-3.1c-.2 0-.3-.1-.3-.3l-.3-2.1v-.7l-.6-.2c-.8-.2-1.6-.6-2.4-1l-.6-.3-.5.4L7.2 26s-.1.1-.2.1c0 0-.1 0-.2-.1l-2.2-2.2c-.1-.1-.1-.3 0-.4l1.3-1.6.4-.5-.3-.7c-.4-.7-.7-1.5-1-2.3l-.2-.6-.7-.1-2-.2c-.2 0-.3-.2-.3-.3V14c0-.2.1-.3.3-.3l1.9-.3.7-.1.2-.7c.2-.9.5-1.7 1-2.5l.3-.6-.4-.4-1.2-1.5c-.1-.1-.1-.3 0-.4L6.8 5c.1-.1.2-.1.2-.1s.1 0 .2.1l1.4 1.1.5.4.6-.4c.8-.5 1.7-.9 2.7-1.1l.7-.2.1-.7.2-1.8c0-.2.2-.3.3-.3h3.1m-1.5 19.5c3.4 0 6.1-2.8 6.1-6.1s-2.8-6.1-6.1-6.1-6.2 2.7-6.2 6 2.8 6.2 6.2 6.2m1.5-20.4h-3.1c-.7 0-1.2.5-1.3 1.2L12.2 4c-1 .3-2 .7-2.9 1.2L7.8 4.1c-.2-.1-.5-.2-.8-.2-.3 0-.6.1-.9.3L3.9 6.4c-.5.5-.5 1.3-.1 1.8L5 9.7c-.5.9-.8 1.8-1.1 2.7l-1.9.3c-.7.1-1.2.6-1.2 1.3v3.1c0 .7.5 1.2 1.2 1.3l2 .2c.3.9.6 1.7 1.1 2.5l-1.3 1.6c-.4.5-.4 1.3.1 1.7l2.2 2.2c.3.3.6.4.9.4.3 0 .6-.1.8-.3l1.6-1.3c.8.5 1.7.8 2.6 1.1l.2 2.1c.1.7.6 1.2 1.3 1.2h3.1c.7 0 1.2-.5 1.3-1.2l.2-2c1-.3 1.9-.6 2.8-1.1l1.5 1.2c.2.2.5.3.8.3.3 0 .7-.1.9-.4l2.2-2.2c.5-.5.5-1.2.1-1.7l-1.2-1.5c.5-.9.9-1.8 1.1-2.7l1.9-.2c.7-.1 1.2-.6 1.2-1.3v-3.1c0-.7-.5-1.2-1.2-1.3l-1.8-.2c-.2-1-.6-1.9-1.1-2.7l1.1-1.4c.6-.6.6-1.4.1-1.9l-2.2-2.2c-.3-.3-.6-.4-.9-.4-.3 0-.6.1-.8.3l-1.4 1.1c-.9-.5-1.9-.9-2.9-1.2l-.2-1.8c0-.6-.6-1.1-1.3-1.1zm-1.5 19.4c-2.8 0-5.1-2.3-5.1-5.1s2.3-5.1 5.1-5.1 5.1 2.3 5.1 5.1-2.3 5.1-5.1 5.1zm22.5-3.7c.1 0 .3.1.3.2l.3 1.2.1.7.7.1c.8.1 1.5.4 2.2.7l.6.3.5-.5.9-.9c.1-.1.2-.1.2-.1s.1 0 .2.1l1.6 1.4c.1.1.1.3 0 .4l-.7 1.1-.4.6.4.6c.4.6.7 1.2 1 1.9l.2.6h2c.2 0 .3.1.3.3l.2 2.1c0 .2-.1.3-.2.3l-1.3.3-.7.1-.2.8c-.1.7-.4 1.4-.7 2.1l-.3.6.5.5 1 1c.1.1.1.3 0 .4l-1.4 1.6c-.1.1-.2.1-.2.1-.1 0-.1 0-.2-.1l-1.2-.8-.5-.2-.6.4c-.6.4-1.3.8-2 1l-.6.2V38c0 .2-.1.3-.3.3l-2.2.2c-.1 0-.3-.1-.3-.2l-.3-1.5-.1-.7-.7-.1c-.7-.1-1.3-.3-2-.6l-.6-.3-.5.5-1.1 1c-.1.1-.2.1-.2.1s-.1 0-.2-.1l-1.6-1.4c-.1-.1-.1-.3-.1-.4l.8-1.2.4-.6-.4-.6c-.4-.6-.7-1.2-.9-1.8l-.2-.6h-2.2c-.2 0-.3-.1-.3-.3l-.2-2.1c0-.2.1-.3.2-.3l1.4-.3.7-.1.1-.7c.1-.7.3-1.4.6-2.1l.3-.6-.4-.5-.9-1c-.1-.1-.1-.3 0-.4L30 20c.1-.1.2-.1.2-.1h.2l1.1.7.6.4.6-.4c.6-.5 1.3-.8 2.1-1.1l.6-.2v-2c0-.2.1-.3.3-.3l2.1-.2m-.2 16h.4c1.4-.1 2.6-.8 3.5-1.8.9-1.1 1.3-2.4 1.2-3.8-.2-2.7-2.5-4.8-5.2-4.8h-.4c-1.4.1-2.6.8-3.5 1.8-.9 1.1-1.3 2.4-1.2 3.8.2 2.7 2.5 4.8 5.2 4.8m.2-17h-.1l-2.2.2c-.7.1-1.2.6-1.2 1.3v1.3c-.8.3-1.6.7-2.3 1.2l-1.1-.8c-.2-.1-.5-.2-.7-.2-.4 0-.7.2-1 .5l-1.4 1.6c-.4.5-.4 1.2 0 1.7l.9 1c-.3.7-.6 1.5-.7 2.3l-1.4.3c-.6.1-1.1.7-1 1.4l.2 2.1c.1.7.6 1.2 1.3 1.2h1.5c.3.7.6 1.4 1 2l-.8 1.2c-.4.6-.3 1.3.2 1.7l1.6 1.4c.2.2.5.3.8.3.3 0 .6-.1.9-.4l1.1-1c.7.3 1.4.6 2.2.7l.3 1.5c.1.6.7 1 1.3 1h.1l2.1-.2c.7-.1 1.2-.6 1.2-1.3v-1.4c.8-.3 1.5-.7 2.2-1.1l1.2.8c.2.1.5.2.7.2.4 0 .7-.2 1-.5l1.4-1.6c.4-.5.4-1.2 0-1.7l-1-1c.3-.7.6-1.5.7-2.3l1.3-.3c.6-.1 1.1-.7 1-1.4l-.2-2.1c-.1-.7-.6-1.2-1.3-1.2h-1.3c-.3-.8-.6-1.5-1.1-2.1l.7-1.1c.4-.6.3-1.3-.2-1.7L44.3 18c-.2-.2-.5-.3-.8-.3-.3 0-.6.1-.9.4l-.9.8c-.8-.4-1.6-.6-2.4-.8l-.3-1.2c-.1-.7-.6-1.1-1.2-1.1zm-.2 16c-2.2 0-4-1.7-4.2-3.8-.2-2.3 1.5-4.3 3.8-4.5h.4c2.2 0 4 1.7 4.2 3.8.2 2.3-1.5 4.3-3.8 4.5-.2-.1-.3 0-.4 0zm-18.2-1.9v1h1.3c.1 0 .3.1.3.3l.1.8.1.7.7.2c.6.2 1.1.4 1.6.7l.6.4.5-.4.6-.5c.1-.1.1-.1.2-.1 0 0 .1 0 .2.1l.9.9c.1.1.1.3 0 .4l-.5.6-.4.5.3.6c.3.5.5 1 .6 1.6l.2.7.7.1.8.1c.2 0 .3.1.3.3v1.3c0 .1-.1.3-.3.3l-.9.1-.7.1-.2.7c-.2.6-.4 1.1-.7 1.6l-.4.6.4.5.6.7c.1.1.1.3 0 .4l-.9.9c-.1.1-.2.1-.2.1s-.1 0-.2-.1l-.7-.6-.5-.4-.6.3c-.5.3-1.1.5-1.6.6l-.7.2-.1.7-.1.9c0 .1-.1.3-.3.3h-1.3c-.1 0-.3-.1-.3-.3l-.1-1-.1-.7-.6-.1c-.5-.2-1-.4-1.5-.7l-.6-.3-.5.4-.8.6h-.2s-.1 0-.2-.1l-.9-.9c-.1-.1-.1-.3 0-.4l.6-.8.4-.5-.3-.6c-.3-.5-.5-.9-.6-1.5l-.2-.6-.7-.1-1-.1c-.2 0-.3-.1-.3-.3v-1.3c0-.1.1-.3.3-.3l.9-.1.7-.1.2-.7c.1-.5.4-1.1.6-1.6l.3-.6-.2-.4-.6-.7c-.1-.1-.1-.3 0-.4l.9-.9c.1-.1.2-.1.2-.1s.1 0 .2.1l.7.5.5.4.6-.3c.5-.3 1.1-.5 1.7-.7l.7-.2.1-.7.1-.8c0-.1.1-.3.3-.3v-1m.6 13.9c2.4 0 4.4-2 4.4-4.4 0-2.4-1.9-4.4-4.4-4.5-2.4 0-4.4 2-4.4 4.4-.1 2.5 1.9 4.5 4.4 4.5m-.6-13.9c-.7 0-1.2.5-1.3 1.1l-.1.9c-.7.2-1.3.4-2 .8l-.7-.5c-.2-.2-.5-.3-.8-.3-.3 0-.7.1-.9.4l-.9.9c-.5.5-.5 1.2-.1 1.7l.6.7c-.3.6-.6 1.2-.7 1.8l-.9.1c-.7.1-1.2.6-1.2 1.3v1.3c0 .7.5 1.2 1.1 1.3l1 .1c.2.6.4 1.1.7 1.7l-.7.8c-.4.5-.4 1.3.1 1.7l.9.9c.3.3.6.4.9.4.3 0 .6-.1.8-.3l.8-.6c.5.3 1.1.6 1.7.8l.1 1c.1.7.6 1.2 1.3 1.2h1.3c.7 0 1.2-.5 1.3-1.1l.1-.9c.7-.2 1.3-.4 1.9-.7l.7.6c.2.2.5.3.8.3.3 0 .7-.1.9-.4l.9-.9c.5-.5.5-1.2.1-1.7l-.6-.7c.3-.6.6-1.2.8-1.8l.9-.1c.7-.1 1.2-.6 1.2-1.3v-1.3c0-.7-.5-1.2-1.1-1.3l-.8-.1c-.2-.6-.4-1.2-.7-1.8l.5-.6c.4-.5.4-1.3-.1-1.7l-.9-.9c-.3-.3-.6-.4-.9-.4-.3 0-.6.1-.8.3l-.6.1c-.6-.4-1.2-.6-1.9-.8l-.1-.8c-.1-.7-.6-1.2-1.3-1.2h-1.3zm.6 12.9c-.1 0-.1 0 0 0-1.9 0-3.4-1.6-3.4-3.5s1.6-3.4 3.4-3.4c1.9 0 3.4 1.6 3.4 3.5s-1.6 3.4-3.4 3.4z" fill="#010202"/></svg>