<svg xmlns="http://www.w3.org/2000/svg" viewBox="7 -7 64 64" enable-background="new 7 -7 64 64"><style type="text/css">.st0{fill:#FFFFFF;}</style><path class="st0" d="M46 57H32v-9.3l-4.7-1.6-6.3 6.3-9.4-9.4 6.3-6.3-1.6-4.7H7V18h9.3l1.6-4.7L11.6 7 21-2.4l6.3 6.3L32 2.3V-7h14v9.3l4.7 1.6L57-2.4 66.4 7l-6.3 6.3 1.6 4.7H71v14h-9.3l-1.6 4.7 6.3 6.3-9.4 9.4-6.3-6.3-4.7 1.6V57zm-12-2h10v-8.7l7.3-2.4 5.7 5.7 6.6-6.6-5.7-5.7 2.4-7.3H69V20h-8.7l-2.4-7.3L63.6 7 57 .4l-5.7 5.7L44 3.7V-5H34v8.7l-7.3 2.4L21 .4 14.4 7l5.7 5.7-2.4 7.3H9v10h8.7l2.4 7.3-5.7 5.7 6.6 6.6 5.7-5.7 7.3 2.4V55zm5-23c-3.9 0-7-3.1-7-7s3.1-7 7-7 7 3.1 7 7-3.1 7-7 7zm0-12c-2.8 0-5 2.2-5 5s2.2 5 5 5 5-2.2 5-5-2.2-5-5-5z"/></svg>