<svg xmlns="http://www.w3.org/2000/svg" width="121.03mm" height="203.12mm" viewBox="0 0 343.09 575.76"><title>deer</title><path d="M458.61 24.26c-1.12-3.58-3.09-6.47-7.26-7.53 3.94 7.22 2 14.08-1.27 20.38-3.48 6.7-5.68 8.45-12.64 6.81 8.44-16.52 6.05-31.3-7.72-43.92a9 9 0 0 0 0 4.57c.71 2.76 1.67 5.45 2.46 8.19A20.43 20.43 0 0 1 430.43 29c-2.57 4.57-6.48 5.27-10.42 1.86-2-1.7-3.72-3.7-5.87-5.1-7.71-5-15.12-10.4-21.13-17.48A20.73 20.73 0 0 0 390.44 6l-1.13.7L394.9 21l-4.17-1a5.54 5.54 0 0 0 1.64 3.5c2.4 2.33 4.8 4.68 7.36 6.84 9.14 7.75 15.4 17.18 16.77 29.29a90.18 90.18 0 0 1 .4 14.44c-.19 4-.28 8.41-1.9 12-5.28 11.46-11.23 22.62-17 33.87-.38.75-1.17 1.3-2.51 2.74 0-8.25.44-15.44-.12-22.55s-1.55-14.2-5.46-20.44a6.23 6.23 0 0 0-.52 2.64c-.29 10.15-.14 20.35-1 30.46-.93 11.12-3.77 21.75-12.44 29.78-5.62 5.2-11.19 10.45-16.9 15.54-.73.65-2.17.5-3.29.73a13.1 13.1 0 0 1-.24-3.11c.73-4.64 1.91-9.23 2.35-13.9.89-9.37 1.42-18.77 2.06-28.16a14.86 14.86 0 0 0-.59-2.86c-3.74 8.14-6.6 15.53-7.4 23.47-1 10.38-3.1 20.3-9.36 29-1.16 1.62-1.37 4.08-1.57 6.18a7.16 7.16 0 0 1-4.63 6.52 36.51 36.51 0 0 1-22.13 2.29c-3.57-.69-6.17-1.94-8.06-5.11-2.64-4.41-5.08-9.11-8.51-12.85-4.64-5.05-8.53-10.24-9.7-17.14a45.63 45.63 0 0 0-1.18-5.07c-2.18-7.52-4.41-15-6.63-22.55l-1.28.25a202.87 202.87 0 0 0 4.19 40.2c-2.22-1.74-3.75-3-5.31-4.16-7.93-6.07-14.61-13.06-17.19-23.12-1.2-4.68-2.49-9.34-3.61-14-1.3-5.45-2.45-10.94-3.67-16.41-4.15 9.23-.94 18.65-1.52 28.14-5.34-9.17-11.07-18.21-15-28-4.95-12.16-6.27-24.81-.83-37.63 2.62-6.16 6.92-10.71 11-15.65 2.17-2.61 3.25-6.13 5.13-9.86h-4.64c1.51-8 3.81-15.67 3.5-23.79a6 6 0 0 0-2.56 2.23c-4.34 6.79-8.61 13.63-13 20.41-3.35 5.22-6.65 10.47-10.23 15.54-2.52 3.57-5.29 4.33-8.77 2.76l3.2-6.07-.75-.53-6 4.38a20.53 20.53 0 0 1-3.11-14.57c1.05-7.23 2.53-14.41 3.71-21.62a52.29 52.29 0 0 0 .31-5.95l-1.19-.29a25.54 25.54 0 0 0-2 3.2c-2.72 6-5.21 12.08-8.06 18-4.74 9.83-3.79 19.15 1.71 28.37 1.13 1.89 1.23 4.36 2 6.49 1.36 3.77 2.76 7.53 4.35 11.2 2.49 5.74 5.93 11.07 5.47 17.81-.84 12.34 2.42 23.46 11.38 32.3 8.1 8 16.37 15.81 24.94 23.27 9.54 8.29 19.54 16.06 29.25 24.15 2.34 1.95 4.37 4.26 6.54 6.4-7.23-1.9-13.7-4.79-20.45-6.74-7.11-2-12.88-5.52-17-11.73a6.38 6.38 0 0 0-2-1.32c-.43.81-1.37 1.73-1.21 2.4.55 2.37 1 4.94 2.34 6.92 5.65 8.57 11.39 17.11 17.52 25.34 2.68 3.59 5.9 7.37 9.76 9.31 3.06 1.54 6.42 2.31 8.45 5.32 1.39 2.07 2.48 4.34 3.72 6.51 3 5.27 3.46 10.51-.17 15.72a5.16 5.16 0 0 0-.76 1.68c-2.94 12.26-5.81 24.54-8.81 36.79a6.5 6.5 0 0 1-2 3.39 29.5 29.5 0 0 1-16.92 6.83c-14 .77-28 1.61-41.95 2.2-2.9.12-5.84-.74-8.76-1.17-2.06-.31-4.19-1.2-6.16-.93-8 1.13-16 2.61-24.06 4-2.79.46-5.85.3-8.32 1.43-6.15 2.81-12.43 5.64-17.91 9.51-6.85 4.83-15.91 6.87-20.18 15.16a3.69 3.69 0 0 1-1.15.93c-7.73 5.76-11.79 13.91-14 22.9-2.49 10 1.1 19.85 1.25 29.81a1.71 1.71 0 0 0 .1.36c3 13.51 6.61 26.91 8.65 40.56 1.81 12.13 2 24.53 2.56 36.83.52 10.62.65 21.25.92 31.89a13.45 13.45 0 0 1-.31 4.43c-2.92 8.93-5.18 18.2-9.25 26.58-3.11 6.42-4.53 12.27-4 19.42.62 7.93-.78 16-1.09 24-.2 5.17 0 10.35 0 15.52-1.5 9.27-.73 13.81 12.67 11.58s18.62 6.7 16.75-3.72-13-15.7-13-15.7c-.66-.91-2-1.93-1.85-2.73a54.66 54.66 0 0 1 2.09-8.23c2.63-8.36 5.29-16.72 8.07-25 1.84-5.5 3.67-11 5.94-16.35 6.25-14.68 12.71-29.28 19.12-43.9 3.47-7.92 6.17-16.24 12.33-23.41 3.67 5.31 5.72-1.29 8.42-.67 6 4.1 3.38 10.44 4.06 15.74.72 5.68.62 11.6-2.37 17-5.5 10-10.47 20.26-16.27 30.05-3.17 5.36-3.14 9.93-.45 15.34 5.09 10.15 10.47 20.35 14.22 31.15 2 5.69 6.15 9.79 8.06 15.32 1.07 2.53-3.38 12.38 3.32 10.92s22.35 2.58 22.73 0-2.61-13.78-10.43-19-7.67-22.24-7.67-22.24c-2.51-11.37 1.1-20.93 8.38-29.58 4.2-5 8.51-10 11.9-15.54 3.6-5.88 6.18-12.4 9.21-18.63.87-1.78 1.82-3.52 2.68-5.31 1.14-2.37 2.87-3.69 5.61-3.37a1.82 1.82 0 0 0 .74 0c5.85-1.87 11.59-.4 17.38.42 2.9.4 5.91-.07 8.83.24 1.16.13 2.94 1.1 3.21 2 4.75 16.77 10.38 33.17 11.46 50.69.24 3.93 2.54 7.7 3.59 11.62 1 3.56-.38 7.19-.06 10.85l.93 10.43s-4.08 20.8-1.35 21.29 9.68-1.24 13.9.74 14-1 14-1c1.12-6.7-10.36-15.18-10.36-15.18-.11-8.39-.58-16.8.06-25.17.28-3.62 2.39-7.12 2.6-10.74a48.31 48.31 0 0 0-1.25-12c-1.5-7.64-3.83-15.14-4.87-22.82-.95-7-.56-14.24-.91-21.37-.15-3 1-4.91 3.52-6.73 7.23-5.22 22.45-5.56 29.49 1.55 1 1 3.47.71 6.1 1a.8.8 0 0 1 .72.7c2.66 20.5 5.41 41.68 8.19 63.09.07.55 4.39 17 2.3 19.27-1.14 1.24-.48 4.14-.29 7.08 0 .62-4.76 10.18 1.2 17.25s26.06 6.33 26.06 6.33-.74-3.72-2.61-11.91-4.78-8.53-4.78-8.53c-2.56-4.14-2.28-7.7.87-11-.08-.61.08-1.5-.25-1.77-3.43-2.78-2.24-6.32-2-9.89.26-4.54 0-9.13-.19-13.68-.53-12.73-2-25.5-1.43-38.18.49-10.47 3.65-20.8 5.2-31.25 1-7.08 1.51-14.27 1.92-21.43.29-5.1 1.55-9.53 5.1-13.45a43.5 43.5 0 0 0 5.92-9.07c1.42-2.7 2-5.84 3.37-8.57 4.34-8.59 8.55-17.13 4.91-27.14a3.13 3.13 0 0 1-.07-.74q-1.41-14.24-2.81-28.48c-.31-3.08-1-6.17-.85-9.23.21-5 1.46-10.06 1.35-15.07-.19-8.65-.1-17.49-1.94-25.85-2.09-9.49-5.7-18.73-9.53-27.71a225.51 225.51 0 0 0-13.45-26.5c-3.38-5.7-3-11.22-1.79-17a8.22 8.22 0 0 1 2.67-3.79c4.86-4.46 10.43-8.25 12.46-15.09a14.2 14.2 0 0 1 2.68-5.18c4.65-5.4 9.58-10.57 14.26-15.95a39.82 39.82 0 0 0 4.84-7c.62-1.13.31-2.77.42-4.18-1.45.18-2 .46-2.33.94-3.11 5.21-7.9 7.87-13.52 9.79-7 2.4-13.79 5.41-20.69 8.12a20.17 20.17 0 0 1-3.24.53 58.24 58.24 0 0 1 4.42-5.61c4.79-4.67 9.64-9.29 14.6-13.78 6.8-6.15 13.82-12.07 20.58-18.27 7.2-6.61 14-13.64 21.32-20.12 11.2-9.92 16-22.15 14-36.9-1.2-8.83 3-15.46 8-21.82a54.48 54.48 0 0 1 6.58-7 9.45 9.45 0 0 1 5-2.31c3.46-.33 4-1.18 2.57-4.44a8 8 0 0 1-.38-5.05c1.71-6.07 3.76-11.97 1.78-18.29z" transform="translate(-116.33)" fill="#373737"/></svg>