<svg xmlns="http://www.w3.org/2000/svg" viewBox="-265 388.9 64 64" enable-background="new -265 388.9 64 64"><style type="text/css">.st0{fill:#FFFFFF;}</style><path class="st0" d="M-223 446.9h4v-12h-4v-2.7l7.1-13.3-17.1-31.1-17.1 31.1 7.1 13.3v2.7h-4v12h4v6h20v-6zm-10-32.1c1.7 0 3 1.3 3 3s-1.3 3-3 3-3-1.3-3-3 1.3-3 3-3zm-14.9 4.1l13.9-25.1v19.1c-2.3.5-4 2.5-4 4.9 0 2.8 2.2 5 5 5s5-2.2 5-5c0-2.4-1.7-4.4-4-4.9v-19.1l13.9 25.1-6.9 12.7v3.3h-16v-3.3l-6.9-12.7zm2.9 26v-8h24v8h-24zm20 6h-16v-4h16v4z"/></svg>