<svg xmlns="http://www.w3.org/2000/svg" viewBox="0 0 50 50" enable-background="new 0 0 50 50"><path fill="#010202" d="M45.5 36.5c2-3.4 3.1-7.4 3.1-11.6s-1.1-8.2-3.1-11.6c-.1-.1-.1-.2-.2-.2C41.2 6.2 33.6 1.5 25 1.5c-8.6 0-16.2 4.7-20.3 11.6-.1.1-.1.2-.2.2-2 3.4-3.1 7.3-3.1 11.6 0 13 10.5 23.5 23.5 23.5 8.6 0 16.2-4.7 20.3-11.6l.3-.3zM3.8 26h7.9c.1 3.1.7 6.1 1.7 8.9H6.2C4.8 32.2 4 29.2 3.8 26zm2.4-11.1h7.2c-1 2.8-1.6 5.8-1.7 8.9H3.8c.2-3.2 1-6.3 2.4-8.9zm40 8.9h-7.8c-.1-3.1-.7-6-1.7-8.9h7.1c1.3 2.6 2.2 5.7 2.4 8.9zm-10.1 0h-10v-8.9h8.1c1.1 2.8 1.8 5.7 1.9 8.9zm-10-11.2V4c3 2.4 5.4 5.3 7 8.6h-7zm-2.2-8.5v8.4H17c1.6-3.1 4-6 6.9-8.4zm0 10.8v8.9H14c.1-3.1.8-6.1 1.9-8.9h8zM14 26h9.8v9h-7.9c-1.1-2.9-1.8-5.9-1.9-9zm9.9 11.2v8.4c-2.9-2.3-5.2-5.2-6.9-8.4h6.9zm2.2 8.6v-8.6h7c-1.7 3.3-4 6.2-7 8.6zm0-10.8v-9h10c-.1 3.1-.8 6.2-1.9 8.9h-8.1v.1zm12.3-9h7.8c-.2 3.2-1 6.3-2.5 8.9h-7c.9-2.8 1.6-5.8 1.7-8.9zm3.9-13.4h-6.6c-1.4-3.1-3.4-6-5.9-8.4 5.1 1.2 9.5 4.2 12.5 8.4zM20.4 4.2c-2.5 2.5-4.5 5.3-6 8.4H7.7c3-4.2 7.5-7.3 12.7-8.4zm-12.7 33h6.7c1.5 3.1 3.4 6 6 8.4-5.2-1.1-9.7-4.2-12.7-8.4zm22.1 8.4c2.5-2.5 4.5-5.3 5.9-8.4h6.6c-3 4.2-7.4 7.2-12.5 8.4z"/></svg>