<svg xmlns="http://www.w3.org/2000/svg" viewBox="7 -7 64 64" enable-background="new 7 -7 64 64"><style type="text/css">.st0{fill:#FFFFFF;}</style><path class="st0" d="M39 56.7c-8.5 0-16.4-3.3-22.4-9.3S7.3 33.5 7.3 25c0-8.5 3.3-16.4 9.3-22.4 6-6 13.9-9.3 22.4-9.3 8.5 0 16.4 3.3 22.4 9.3 6 6 9.3 13.9 9.3 22.4 0 8.5-3.3 16.4-9.3 22.4-6 6-13.9 9.3-22.4 9.3zm0-3c7.7 0 14.9-3 20.3-8.4s8.4-12.6 8.4-20.3c0-7.7-3-14.9-8.4-20.3S46.7-3.7 39-3.7c-7.7 0-14.9 3-20.3 8.4S10.3 17.3 10.3 25c0 7.7 3 14.9 8.4 20.3s12.6 8.4 20.3 8.4zM37.5-5.1h3v60.2h-3zM8.9 23.5h60.2v3H8.9zm27.2 32.8C35.6 55.8 22 44.9 22 25S35.6-5.8 36.1-6.3L38-3.9c-.1.1-13 10.5-13 28.9s12.9 28.8 13 28.9l-1.9 2.4zm5.8 0L40 53.9c.1-.1 13-10.5 13-28.9S40.1-3.8 40-3.9l1.9-2.4C42.4-5.8 56 5.1 56 25S42.4 55.8 41.9 56.3zM39 16.8c-19.1 0-24.4-10.1-24.6-10.5l2.7-1.4c.2.4 4.8 8.9 21.9 8.9 17.3 0 21.9-8.8 21.9-8.9l2.7 1.3c-.2.5-5.5 10.6-24.6 10.6zm21.9 28.3c-.2-.4-4.8-8.9-21.9-8.9-17.3 0-21.9 8.8-21.9 8.9l-2.7-1.3c.2-.4 5.5-10.5 24.6-10.5s24.4 10.1 24.6 10.5l-2.7 1.3z"/></svg>