<svg xmlns="http://www.w3.org/2000/svg" viewBox="7 -7 64 64" enable-background="new 7 -7 64 64"><style type="text/css">.st0{fill:#FFFFFF;}</style><path class="st0" d="M39 57.1c-8.6 0-16.6-3.3-22.7-9.4-6.1-6.1-9.4-14.1-9.4-22.7s3.3-16.6 9.4-22.7C22.4-3.8 30.4-7.1 39-7.1s16.6 3.3 22.7 9.4c6.1 6.1 9.4 14.1 9.4 22.7s-3.3 16.6-9.4 22.7c-6.1 6.1-14.1 9.4-22.7 9.4zm0-2c8 0 15.6-3.1 21.3-8.8C66 40.6 69.1 33 69.1 25S66 9.4 60.3 3.7C54.6-2 47-5.1 39-5.1S23.4-2 17.7 3.7 8.9 17 8.9 25s3.1 15.6 8.8 21.3C23.4 52 31 55.1 39 55.1zM38-6h2v62h-2zM8 24h62v2H8zm28.4 32.8C35.8 56.3 22 45.3 22 25S35.8-6.3 36.4-6.8l1.2 1.6C37.5-5.1 24 5.7 24 25c0 19.3 13.5 30.1 13.6 30.2l-1.2 1.6zm5.2 0l-1.2-1.6C40.5 55.1 54 44.3 54 25 54 5.7 40.5-5.1 40.4-5.2l1.2-1.6C42.2-6.3 56 4.7 56 25S42.2 56.3 41.6 56.8zM39 16C19.6 16 14.3 5.9 14.1 5.4l1.8-.9c0 .1 5 9.5 23.1 9.5 18.2 0 23.1-9.4 23.1-9.4l1.8.9C63.7 5.9 58.4 16 39 16zm23.1 29.4c0-.1-5-9.4-23.1-9.4-18.2 0-23.1 9.4-23.1 9.4l-1.8-.9C14.3 44.1 19.6 34 39 34s24.7 10.1 24.9 10.6l-1.8.8z"/></svg>