<svg xmlns="http://www.w3.org/2000/svg" viewBox="-563 388.9 64 64" enable-background="new -563 388.9 64 64"><style type="text/css">.st0{fill:#FFFFFF;}</style><path class="st0" d="M-535 452.9c-7.5 0-14.5-2.9-19.8-8.2-5.3-5.3-8.2-12.3-8.2-19.8s2.9-14.5 8.2-19.8c5.3-5.3 12.3-8.2 19.8-8.2h1v27h27v1c0 7.5-2.9 14.5-8.2 19.8-5.3 5.3-12.3 8.2-19.8 8.2zm-1-54c-6.6.2-12.8 2.9-17.4 7.6-4.9 4.9-7.6 11.4-7.6 18.4 0 6.9 2.7 13.5 7.6 18.4 4.9 4.9 11.4 7.6 18.4 7.6 6.9 0 13.5-2.7 18.4-7.6 4.7-4.7 7.3-10.8 7.6-17.4h-27v-27zm37 19h-29v-29h1c7.5 0 14.6 2.9 19.8 8.2 5.3 5.3 8.2 12.3 8.2 19.8v1zm-27-2h25c-.2-6.6-2.9-12.7-7.6-17.4-4.7-4.7-10.8-7.4-17.4-7.6v25z"/></svg>