<svg xmlns="http://www.w3.org/2000/svg" width="64" height="64" viewBox="-265 388.9 64 64" enable-background="new -265 388.9 64 64"><style type="text/css">.st0{fill:#FFFFFF;}</style><path class="st0" d="M-211 445.9h-54v-42h54v42zm-52-2h50v-38h-50v38zm62-6h-9v-2h7v-38h-51v5h-2v-7h55zm-11.7 5.7l-13.4-11.5-10.1 6.1-13.8-15.8-13.3 13.2-1.4-1.4 14.7-14.8 14.2 16.2 9.9-5.9 14.6 12.4zm-12.3-19.7c-3.3 0-6-2.7-6-6s2.7-6 6-6 6 2.7 6 6-2.7 6-6 6zm0-10c-2.2 0-4 1.8-4 4s1.8 4 4 4 4-1.8 4-4-1.8-4-4-4z"/></svg>