<svg xmlns="http://www.w3.org/2000/svg" viewBox="0 0 168.3 172.3" enable-background="new 0 0 168.3 172.3"><style type="text/css">.st0{fill:#FFFFFF;} .st1{fill:#2CB1E6;}</style><path class="st0" d="M31.5 10.4c-12.7 0-23 10.3-23 23s10.3 23 23 23 23-10.3 23-23-10.3-23-23-23zm53 0c-12.7 0-23 10.3-23 23s10.3 23 23 23 23-10.3 23-23-10.3-23-23-23zm53 0c-12.7 0-23 10.3-23 23s10.3 23 23 23 23-10.3 23-23-10.3-23-23-23zm-106 53c-12.7 0-23 10.3-23 23s10.3 23 23 23 23-10.3 23-23-10.3-23-23-23zm53 0c-12.7 0-23 10.3-23 23s10.3 23 23 23 23-10.3 23-23-10.3-23-23-23z"/><path class="st1" d="M137.5 63.4c-12.7 0-23 10.3-23 23s10.3 23 23 23 23-10.3 23-23-10.3-23-23-23z"/><circle class="st0" cx="31.5" cy="139.4" r="23"/><circle class="st0" cx="84.5" cy="139.4" r="23"/><circle class="st0" cx="137.5" cy="139.4" r="23"/></svg>