<?xml version="1.0" encoding="utf-8"?>
<!-- Generator: Adobe Illustrator 18.0.0, SVG Export Plug-In . SVG Version: 6.00 Build 0)  -->
<!DOCTYPE svg PUBLIC "-//W3C//DTD SVG 1.1//EN" "http://www.w3.org/Graphics/SVG/1.1/DTD/svg11.dtd">
<svg version="1.1" id="Layer_1" xmlns="http://www.w3.org/2000/svg" xmlns:xlink="http://www.w3.org/1999/xlink" x="0px" y="0px"
	 viewBox="0 0 570.8 154" enable-background="new 0 0 570.8 154" xml:space="preserve">
<g>
	<path fill="#FFFFFF" d="M24,1.2c-12.7,0-23,10.3-23,23s10.3,23,23,23s23-10.3,23-23S36.7,1.2,24,1.2z"/>
</g>
<g>
	<path fill="#FFFFFF" d="M77,1.2c-12.7,0-23,10.3-23,23s10.3,23,23,23s23-10.3,23-23S89.7,1.2,77,1.2z"/>
</g>
<g>
	<path fill="#FFFFFF" d="M130,1.2c-12.7,0-23,10.3-23,23s10.3,23,23,23s23-10.3,23-23S142.7,1.2,130,1.2z"/>
</g>
<g>
	<path fill="#FFFFFF" d="M24,54.2c-12.7,0-23,10.3-23,23s10.3,23,23,23s23-10.3,23-23S36.7,54.2,24,54.2z"/>
</g>
<g>
	<path fill="#FFFFFF" d="M77,54.2c-12.7,0-23,10.3-23,23s10.3,23,23,23s23-10.3,23-23S89.7,54.2,77,54.2z"/>
</g>
<g>
	<path fill="#26B1E6" d="M130,54.2c-12.7,0-23,10.3-23,23s10.3,23,23,23s23-10.3,23-23S142.7,54.2,130,54.2z"/>
</g>
<g>
	<path fill="#FFFFFF" d="M24,107.2c-12.7,0-23,10.3-23,23s10.3,23,23,23s23-10.3,23-23S36.7,107.2,24,107.2z"/>
</g>
<g>
	<path fill="#FFFFFF" d="M77,107.2c-12.7,0-23,10.3-23,23s10.3,23,23,23s23-10.3,23-23S89.7,107.2,77,107.2z"/>
</g>
<g>
	<path fill="#FFFFFF" d="M130,107.2c-12.7,0-23,10.3-23,23s10.3,23,23,23s23-10.3,23-23S142.7,107.2,130,107.2z"/>
</g>
<g>
	<path fill="#FFFFFF" d="M239.1,10.7c0-0.5,0.1-1,0.4-1.3c0.3-0.3,0.7-0.5,1.2-0.5c0.5,0,0.9,0.2,1.2,0.5c0.3,0.3,0.4,0.7,0.4,1.3
		v4.2h1.3c1.1,0,1.6,0.5,1.6,1.4c0,0.9-0.5,1.4-1.6,1.4h-1.3v15.1c0,0.5-0.1,1-0.4,1.3c-0.3,0.3-0.7,0.5-1.2,0.5
		c-0.5,0-0.9-0.2-1.2-0.5c-0.3-0.3-0.4-0.7-0.4-1.3V17.7h-1.3c-1.1,0-1.6-0.5-1.6-1.4c0-0.9,0.5-1.4,1.6-1.4h1.3V10.7z"/>
	<path fill="#FFFFFF" d="M259.9,22.4c0-0.8-0.1-1.6-0.4-2.1c-0.3-0.6-0.6-1.1-1-1.5c-0.4-0.4-0.9-0.6-1.5-0.8s-1.1-0.3-1.6-0.3
		c-0.5,0-1.1,0.1-1.6,0.3s-1,0.5-1.5,0.8c-0.4,0.4-0.8,0.9-1,1.5c-0.3,0.6-0.4,1.3-0.4,2.1v10.4c0,0.5-0.1,0.9-0.4,1.2
		c-0.3,0.3-0.7,0.4-1.2,0.4s-0.9-0.2-1.2-0.5s-0.4-0.7-0.4-1.3v-25c0-0.5,0.1-1,0.4-1.3c0.3-0.3,0.7-0.5,1.2-0.5s0.9,0.2,1.2,0.5
		c0.3,0.3,0.4,0.7,0.4,1.3v9.6l0.1,0.1c0.7-0.9,1.5-1.6,2.5-2c1-0.4,1.9-0.6,2.9-0.6c0.8,0,1.5,0.1,2.3,0.4c0.8,0.3,1.5,0.7,2.2,1.2
		c0.7,0.6,1.2,1.3,1.6,2.2c0.4,0.9,0.6,2.1,0.6,3.4v10.6c0,0.5-0.1,0.9-0.4,1.2c-0.3,0.3-0.7,0.4-1.2,0.4s-0.9-0.1-1.2-0.4
		s-0.4-0.7-0.4-1.2V22.4z"/>
	<path fill="#FFFFFF" d="M268.4,25.9c0,0.8,0.1,1.6,0.4,2.2c0.3,0.7,0.6,1.3,1.1,1.8c0.5,0.5,1.1,0.9,1.8,1.2
		c0.7,0.3,1.5,0.4,2.4,0.4c1.1,0,2-0.1,2.7-0.4c0.7-0.3,1.3-0.6,1.8-0.9s0.9-0.6,1.2-0.9c0.3-0.3,0.6-0.4,0.9-0.4s0.6,0.1,0.8,0.4
		c0.2,0.2,0.4,0.6,0.4,1.1c0,0.4-0.2,0.8-0.7,1.3c-0.5,0.5-1.1,0.9-1.8,1.3c-0.7,0.4-1.6,0.7-2.5,1c-0.9,0.3-1.9,0.4-2.8,0.4
		c-1.6,0-2.9-0.3-4-0.8c-1.1-0.5-2.1-1.3-2.8-2.2c-0.7-0.9-1.3-2-1.6-3.1c-0.3-1.2-0.5-2.4-0.5-3.7c0-1.3,0.2-2.5,0.6-3.7
		c0.4-1.2,1-2.2,1.7-3.1c0.7-0.9,1.7-1.6,2.8-2.1c1.1-0.5,2.3-0.8,3.7-0.8c1.3,0,2.5,0.3,3.6,0.8c1.1,0.5,1.9,1.3,2.6,2.1
		c0.7,0.9,1.3,1.9,1.6,3c0.4,1.1,0.6,2.3,0.6,3.4c0,0.6-0.1,1-0.4,1.3c-0.2,0.3-0.7,0.4-1.4,0.4H268.4z M279.2,23.5
		c0-0.7-0.1-1.4-0.3-2.1s-0.5-1.3-0.9-1.9c-0.4-0.6-1-1-1.6-1.4c-0.7-0.4-1.4-0.5-2.3-0.5c-1,0-1.9,0.1-2.5,0.4
		c-0.7,0.3-1.3,0.8-1.7,1.3s-0.8,1.2-1,1.9c-0.2,0.7-0.3,1.4-0.3,2.1H279.2z"/>
</g>
<g>
	<path fill="#FFFFFF" d="M315.1,122.4c-0.1-0.3-0.2-0.5-0.2-0.8c-0.1-0.2-0.1-0.5-0.1-0.6c0-0.4,0.1-0.7,0.4-1.1
		c0.3-0.4,0.7-0.5,1.4-0.5c0.4,0,0.8,0.1,1.2,0.3c0.4,0.2,0.7,0.7,0.9,1.5l4.8,15.2h0.1l4.7-14.6c0.3-0.8,0.5-1.4,0.8-1.8
		c0.3-0.4,0.7-0.6,1.4-0.6c0.7,0,1.2,0.2,1.4,0.6c0.3,0.4,0.5,1,0.8,1.8l4.7,14.6h0.1l4.8-15.2c0.3-0.8,0.6-1.3,0.9-1.5
		s0.8-0.3,1.2-0.3c0.7,0,1.1,0.2,1.4,0.5c0.3,0.4,0.4,0.7,0.4,1.1c0,0.2,0,0.4-0.1,0.6c-0.1,0.2-0.1,0.5-0.2,0.8l-6.2,17.8
		c-0.3,0.7-0.5,1.2-0.9,1.5c-0.3,0.3-0.8,0.4-1.3,0.4c-0.5,0-0.9-0.1-1.3-0.4c-0.3-0.3-0.6-0.8-0.9-1.5l-4.9-15h-0.1l-4.9,15
		c-0.2,0.7-0.5,1.2-0.9,1.5c-0.3,0.3-0.8,0.4-1.3,0.4c-0.5,0-1-0.1-1.3-0.4c-0.3-0.3-0.6-0.8-0.9-1.5L315.1,122.4z"/>
	<path fill="#FFFFFF" d="M351.3,132.2c0,0.9,0.1,1.8,0.4,2.6c0.3,0.8,0.7,1.5,1.3,2.1s1.3,1.1,2.1,1.4s1.8,0.5,2.8,0.5
		c1.3,0,2.3-0.2,3.1-0.5c0.8-0.3,1.5-0.7,2.1-1.1s1-0.7,1.4-1c0.4-0.3,0.7-0.5,1.1-0.5c0.3,0,0.7,0.1,0.9,0.4
		c0.3,0.3,0.4,0.7,0.4,1.2c0,0.5-0.3,1-0.8,1.5c-0.5,0.5-1.2,1-2.1,1.5s-1.8,0.9-2.9,1.2c-1.1,0.3-2.2,0.5-3.3,0.5
		c-1.8,0-3.4-0.3-4.7-0.9c-1.3-0.6-2.4-1.5-3.2-2.5c-0.9-1.1-1.5-2.3-1.9-3.6c-0.4-1.4-0.6-2.8-0.6-4.3c0-1.5,0.2-2.9,0.7-4.3
		c0.5-1.4,1.1-2.6,2-3.6c0.9-1,1.9-1.9,3.2-2.5s2.7-0.9,4.3-0.9c1.5,0,2.9,0.3,4.1,0.9c1.2,0.6,2.3,1.5,3.1,2.5
		c0.8,1,1.5,2.2,1.9,3.5c0.4,1.3,0.7,2.6,0.7,4c0,0.6-0.1,1.1-0.4,1.5c-0.3,0.3-0.8,0.5-1.7,0.5H351.3z M363.8,129.4
		c0-0.8-0.1-1.6-0.4-2.4s-0.6-1.5-1.1-2.2c-0.5-0.6-1.1-1.2-1.9-1.6c-0.8-0.4-1.7-0.6-2.7-0.6c-1.2-0.1-2.2,0.1-3,0.5
		s-1.5,0.9-2,1.6c-0.5,0.6-0.9,1.4-1.1,2.2s-0.4,1.6-0.4,2.5H363.8z"/>
	<path fill="#FFFFFF" d="M371.3,111.1c0-0.6,0.2-1.1,0.5-1.5c0.3-0.4,0.8-0.5,1.4-0.5c0.6,0,1,0.2,1.4,0.5c0.3,0.4,0.5,0.9,0.5,1.5
		v11.3h0.1c0.3-0.3,0.6-0.7,0.9-1.1c0.4-0.4,0.8-0.7,1.3-1c0.5-0.3,1.1-0.5,1.7-0.7c0.6-0.2,1.3-0.3,2.1-0.3c1.5,0,2.9,0.3,4.1,0.9
		s2.2,1.5,3.1,2.5c0.8,1.1,1.5,2.3,1.9,3.6c0.4,1.4,0.6,2.8,0.6,4.3c0,1.5-0.2,2.9-0.6,4.3c-0.4,1.4-1.1,2.6-1.9,3.6
		c-0.8,1.1-1.9,1.9-3.1,2.5s-2.6,0.9-4.1,0.9c-3,0-5-1-6.1-3.1h-0.1v1.1c0,0.6-0.2,1.1-0.5,1.5c-0.3,0.4-0.8,0.5-1.4,0.5
		c-0.6,0-1-0.2-1.4-0.5c-0.3-0.4-0.5-0.8-0.5-1.5V111.1z M375,133.6c0.2,1,0.6,1.8,1.1,2.6c0.5,0.8,1.1,1.4,1.9,1.9
		c0.8,0.5,1.8,0.7,2.9,0.7c1.2,0,2.1-0.2,2.9-0.7c0.8-0.5,1.4-1.1,1.9-1.9c0.5-0.8,0.9-1.7,1.1-2.6c0.2-1,0.3-1.9,0.3-2.8
		c0-0.9-0.1-1.9-0.3-2.8c-0.2-1-0.6-1.8-1.1-2.6c-0.5-0.8-1.1-1.4-1.9-1.9c-0.8-0.5-1.8-0.7-2.9-0.7c-1.1,0-2.1,0.2-2.9,0.7
		c-0.8,0.5-1.4,1.1-1.9,1.9c-0.5,0.8-0.9,1.7-1.1,2.6c-0.2,1-0.3,1.9-0.3,2.8C374.7,131.7,374.8,132.6,375,133.6z"/>
	<path fill="#FFFFFF" d="M405.3,126.5c0.4-1.4,1-2.6,1.9-3.6c0.9-1.1,1.9-1.9,3.2-2.5c1.3-0.6,2.8-0.9,4.5-0.9
		c1.9,0,3.4,0.3,4.5,0.9c1.1,0.6,1.6,1.2,1.6,2c0,0.4-0.1,0.8-0.4,1.1s-0.7,0.5-1.1,0.5c-0.4,0-0.7-0.1-1-0.2
		c-0.3-0.1-0.6-0.3-0.9-0.4c-0.3-0.1-0.7-0.3-1.1-0.4s-0.9-0.2-1.6-0.2c-1.2,0-2.2,0.2-3,0.7c-0.8,0.5-1.5,1.1-2,1.9
		s-0.9,1.7-1.1,2.6c-0.2,1-0.4,1.9-0.4,2.8c0,0.9,0.1,1.9,0.4,2.8c0.2,1,0.6,1.8,1.1,2.6s1.2,1.4,2,1.9c0.8,0.5,1.8,0.7,3,0.7
		c0.7,0,1.2-0.1,1.6-0.2c0.4-0.1,0.8-0.3,1.2-0.4c0.3-0.2,0.6-0.3,0.9-0.4c0.3-0.1,0.5-0.2,0.8-0.2c0.4,0,0.8,0.1,1,0.4
		c0.3,0.3,0.4,0.7,0.4,1.2c0,0.7-0.5,1.4-1.5,2c-1,0.6-2.5,0.9-4.5,0.9c-1.7,0-3.2-0.3-4.5-0.9c-1.3-0.6-2.4-1.5-3.2-2.5
		c-0.9-1.1-1.5-2.3-1.9-3.6c-0.4-1.4-0.6-2.8-0.6-4.3C404.7,129.3,404.9,127.9,405.3,126.5z"/>
	<path fill="#FFFFFF" d="M424.3,126.5c0.4-1.4,1.1-2.6,1.9-3.6c0.9-1.1,1.9-1.9,3.1-2.5c1.2-0.6,2.7-0.9,4.3-0.9
		c1.6,0,3,0.3,4.3,0.9s2.3,1.5,3.1,2.5c0.9,1.1,1.5,2.3,1.9,3.6c0.4,1.4,0.7,2.8,0.7,4.3c0,1.5-0.2,2.9-0.7,4.3
		c-0.4,1.4-1.1,2.6-1.9,3.6c-0.9,1.1-1.9,1.9-3.1,2.5s-2.7,0.9-4.3,0.9c-1.6,0-3-0.3-4.3-0.9c-1.2-0.6-2.3-1.5-3.1-2.5
		c-0.9-1.1-1.5-2.3-1.9-3.6c-0.4-1.4-0.7-2.8-0.7-4.3C423.6,129.3,423.9,127.9,424.3,126.5z M427.7,133.6c0.2,1,0.6,1.8,1.1,2.6
		c0.5,0.8,1.1,1.4,1.9,1.9c0.8,0.5,1.8,0.7,2.9,0.7c1.2,0,2.1-0.2,2.9-0.7c0.8-0.5,1.4-1.1,1.9-1.9c0.5-0.8,0.9-1.7,1.1-2.6
		c0.2-1,0.3-1.9,0.3-2.8c0-0.9-0.1-1.9-0.3-2.8c-0.2-1-0.6-1.8-1.1-2.6c-0.5-0.8-1.1-1.4-1.9-1.9c-0.8-0.5-1.8-0.7-2.9-0.7
		c-1.1,0-2.1,0.2-2.9,0.7c-0.8,0.5-1.4,1.1-1.9,1.9c-0.5,0.8-0.9,1.7-1.1,2.6c-0.2,1-0.3,1.9-0.3,2.8
		C427.4,131.7,427.5,132.6,427.7,133.6z"/>
	<path fill="#FFFFFF" d="M461.1,127.8c0-1.6-0.4-2.8-1.3-3.7c-0.9-0.9-2.1-1.4-3.6-1.4s-2.7,0.5-3.6,1.4c-0.8,0.9-1.3,2.2-1.3,3.7
		v12.4c0,0.6-0.2,1.1-0.5,1.4c-0.3,0.3-0.8,0.5-1.4,0.5s-1-0.2-1.4-0.5c-0.3-0.3-0.5-0.8-0.5-1.4v-18.8c0-0.6,0.2-1.1,0.5-1.4
		c0.3-0.3,0.8-0.5,1.4-0.5s1,0.2,1.4,0.5c0.3,0.4,0.5,0.8,0.5,1.5v0.7l0.1,0.1c0.2-0.3,0.5-0.6,0.8-0.9c0.3-0.3,0.7-0.6,1.1-0.9
		c0.5-0.3,1-0.5,1.6-0.7c0.6-0.2,1.3-0.3,2.2-0.3c1.1,0,2.2,0.3,3.3,0.8c1.1,0.5,2.1,1.5,2.9,2.9c0.8-1.2,1.8-2.1,2.9-2.8
		c1.1-0.7,2.5-1,4.1-1c0.9,0,1.8,0.1,2.7,0.4c0.9,0.3,1.8,0.8,2.5,1.4s1.4,1.5,1.9,2.6c0.5,1.1,0.7,2.4,0.7,4v12.3
		c0,0.6-0.2,1.1-0.5,1.4c-0.3,0.3-0.8,0.5-1.4,0.5s-1-0.2-1.4-0.5c-0.3-0.3-0.5-0.8-0.5-1.4v-12.4c0-1.6-0.4-2.8-1.3-3.7
		c-0.9-0.9-2.1-1.4-3.6-1.4s-2.7,0.5-3.6,1.4c-0.8,0.9-1.3,2.2-1.3,3.7v12.4c0,0.6-0.2,1.1-0.5,1.4c-0.3,0.3-0.8,0.5-1.4,0.5
		s-1-0.2-1.4-0.5c-0.3-0.3-0.5-0.8-0.5-1.4V127.8z"/>
	<path fill="#FFFFFF" d="M483.4,121.4c0-0.6,0.2-1.1,0.5-1.5c0.3-0.4,0.8-0.5,1.4-0.5c0.6,0,1,0.2,1.4,0.5c0.3,0.4,0.5,0.8,0.5,1.5
		v1.1h0.1c1.1-2.1,3.1-3.1,6.1-3.1c1.5,0,2.9,0.3,4.1,0.9s2.2,1.5,3.1,2.5c0.8,1.1,1.5,2.3,1.9,3.6c0.4,1.4,0.6,2.8,0.6,4.3
		c0,1.5-0.2,2.9-0.6,4.3c-0.4,1.4-1.1,2.6-1.9,3.6c-0.8,1.1-1.9,1.9-3.1,2.5s-2.6,0.9-4.1,0.9c-0.7,0-1.4-0.1-2.1-0.3
		c-0.6-0.2-1.2-0.4-1.7-0.7c-0.5-0.3-1-0.6-1.3-1c-0.4-0.4-0.7-0.7-0.9-1.1h-0.1v10.3c0,0.6-0.2,1.1-0.5,1.5
		c-0.3,0.4-0.8,0.5-1.4,0.5c-0.6,0-1-0.2-1.4-0.5c-0.3-0.4-0.5-0.8-0.5-1.5V121.4z M487.1,133.6c0.2,1,0.6,1.8,1.1,2.6
		c0.5,0.8,1.1,1.4,1.9,1.9c0.8,0.5,1.8,0.7,2.9,0.7c1.2,0,2.1-0.2,2.9-0.7c0.8-0.5,1.4-1.1,1.9-1.9c0.5-0.8,0.9-1.7,1.1-2.6
		c0.2-1,0.3-1.9,0.3-2.8c0-0.9-0.1-1.9-0.3-2.8c-0.2-1-0.6-1.8-1.1-2.6c-0.5-0.8-1.1-1.4-1.9-1.9c-0.8-0.5-1.8-0.7-2.9-0.7
		c-1.1,0-2.1,0.2-2.9,0.7c-0.8,0.5-1.4,1.1-1.9,1.9c-0.5,0.8-0.9,1.7-1.1,2.6c-0.2,1-0.3,1.9-0.3,2.8
		C486.8,131.7,486.9,132.6,487.1,133.6z"/>
	<path fill="#FFFFFF" d="M525.9,140.3c0,0.6-0.2,1.1-0.6,1.4s-0.8,0.4-1.2,0.4c-0.4,0-0.8-0.1-1.2-0.4s-0.6-0.7-0.6-1.4v-1.5h-0.1
		c-0.8,1.1-1.8,2-2.8,2.5c-1,0.5-2.2,0.8-3.4,0.8c-1.6,0-3-0.3-4.3-0.9s-2.3-1.5-3.1-2.5c-0.9-1.1-1.5-2.3-1.9-3.6
		c-0.4-1.4-0.7-2.8-0.7-4.3c0-1.5,0.2-2.9,0.7-4.3c0.4-1.4,1.1-2.6,1.9-3.6c0.9-1.1,1.9-1.9,3.1-2.5s2.7-0.9,4.3-0.9
		c1.3,0,2.5,0.3,3.4,0.8c1,0.5,1.9,1.3,2.8,2.2h0.1v-1.2c0-0.7,0.2-1.1,0.6-1.4c0.4-0.3,0.8-0.4,1.2-0.4c0.4,0,0.8,0.1,1.2,0.4
		c0.4,0.3,0.6,0.7,0.6,1.4V140.3z M510.1,133.6c0.2,1,0.6,1.8,1.1,2.6c0.5,0.8,1.1,1.4,1.9,1.9c0.8,0.5,1.8,0.7,2.9,0.7
		c1.2,0,2.1-0.2,2.9-0.7c0.8-0.5,1.4-1.1,1.9-1.9s0.9-1.7,1.1-2.6c0.2-1,0.3-1.9,0.3-2.8c0-0.9-0.1-1.9-0.3-2.8
		c-0.2-1-0.6-1.8-1.1-2.6s-1.1-1.4-1.9-1.9s-1.8-0.7-2.9-0.7c-1.1,0-2.1,0.2-2.9,0.7s-1.4,1.1-1.9,1.9c-0.5,0.8-0.9,1.7-1.1,2.6
		c-0.2,1-0.3,1.9-0.3,2.8C509.8,131.7,509.9,132.6,510.1,133.6z"/>
	<path fill="#FFFFFF" d="M530.8,121.3c0-0.6,0.2-1.1,0.5-1.4c0.3-0.3,0.8-0.5,1.4-0.5c0.6,0,1,0.2,1.4,0.5c0.3,0.4,0.5,0.8,0.5,1.5
		v0.9l0.1,0.1c0.8-1.1,1.8-1.9,2.9-2.3c1.1-0.5,2.2-0.7,3.4-0.7c0.9,0,1.8,0.1,2.7,0.4c0.9,0.3,1.8,0.8,2.5,1.4s1.4,1.5,1.9,2.6
		c0.5,1.1,0.7,2.4,0.7,4v12.3c0,0.6-0.2,1.1-0.5,1.4c-0.3,0.3-0.8,0.5-1.4,0.5s-1-0.2-1.4-0.5c-0.3-0.3-0.5-0.8-0.5-1.4v-12.1
		c0-1-0.2-1.8-0.5-2.5c-0.3-0.7-0.7-1.3-1.2-1.7c-0.5-0.4-1.1-0.7-1.7-1c-0.6-0.2-1.3-0.3-1.9-0.3s-1.3,0.1-1.9,0.3s-1.2,0.5-1.7,1
		c-0.5,0.4-0.9,1-1.2,1.7c-0.3,0.7-0.5,1.5-0.5,2.5v12.1c0,0.6-0.2,1.1-0.5,1.4c-0.3,0.3-0.8,0.5-1.4,0.5c-0.6,0-1-0.2-1.4-0.5
		s-0.5-0.8-0.5-1.4V121.3z"/>
	<path fill="#FFFFFF" d="M552.6,123c-0.2-0.6-0.4-1.1-0.4-1.4c-0.1-0.3-0.1-0.5-0.1-0.7c0-0.5,0.2-0.9,0.5-1.1
		c0.4-0.3,0.7-0.4,1.2-0.4c0.5,0,0.9,0.1,1.2,0.4s0.5,0.6,0.7,1l5.2,15.5h0.1l5.1-15.5c0.1-0.4,0.4-0.7,0.6-1s0.7-0.4,1.2-0.4
		c0.4,0,0.8,0.1,1.2,0.4c0.4,0.3,0.5,0.7,0.5,1.1c0,0.2,0,0.5-0.1,0.7c-0.1,0.3-0.2,0.7-0.4,1.4l-9.5,26.9c-0.1,0.4-0.4,0.7-0.7,1
		c-0.3,0.3-0.7,0.4-1.2,0.4c-0.4,0-0.8-0.1-1.2-0.4c-0.4-0.3-0.5-0.7-0.5-1.1c0-0.2,0-0.5,0.1-0.7c0.1-0.3,0.2-0.7,0.4-1.4l2.4-6.3
		L552.6,123z"/>
</g>
<g>
	<path fill="#FFFFFF" d="M229.2,53c0,1.8-0.6,3.5-1.9,4.9c-1.3,1.5-2.8,2.2-4.6,2.2c-0.8,0-2.4-0.5-4.8-1.6
		c-2.3-1.1-4.1-1.8-5.4-2.3c-1.3-0.5-2.7-0.8-4.2-0.8c-1.6,0-2.9,0.4-3.9,1.1s-1.5,1.9-1.5,3.3c0,1.6,1.6,3,4.8,4.4
		c3.2,1.4,6.6,2.8,10.1,4.3c3.6,1.5,6.6,3.4,9.1,5.9c2.5,2.5,3.8,5.8,3.8,9.9c0,3.6-0.9,6.8-2.8,9.7c-1.9,2.8-4.6,5.1-8.1,6.7
		s-7.5,2.5-11.9,2.5c-3.2,0-6.5-0.5-10-1.6c-3.5-1.1-6.4-2.6-8.8-4.5c-2.4-1.9-3.6-4-3.6-6.3c0-1.4,0.6-3,1.9-4.6
		c1.3-1.6,2.9-2.5,5-2.5c1.4,0,2.7,0.2,3.8,0.7c1.1,0.5,2.5,1.2,4.1,2.1c1.6,0.9,3.1,1.6,4.3,2.1c1.2,0.4,2.7,0.7,4.4,0.7
		c2.4,0,4-0.4,4.9-1.1c0.9-0.7,1.4-1.9,1.4-3.5c0-1.6-1.5-3-4.6-4.3c-3.1-1.3-6.5-2.8-10.2-4.3c-3.7-1.5-6.8-3.5-9.3-6
		s-3.8-5.8-3.8-9.9c0-3.7,0.9-6.9,2.8-9.7s4.4-5,7.7-6.6s7-2.4,11.3-2.4c2.9,0,5.9,0.4,9,1.3c3.1,0.9,5.7,2.2,7.8,4
		C228.2,48.5,229.2,50.6,229.2,53z"/>
	<path fill="#FFFFFF" d="M236.3,93.7V51c0-2.6,0.7-4.8,2.2-6.4c1.5-1.6,3.4-2.5,5.8-2.5c2.1,0,3.7,0.5,5,1.6
		c1.3,1.1,2.1,2.5,2.4,4.5c4.1-4.5,9-6.7,14.9-6.7c6.7,0,12.3,2.7,16.6,8.1c2.1-2.4,4.8-4.4,8-5.9c3.2-1.5,6.2-2.2,8.9-2.2
		c4.4,0,8.2,0.8,11.5,2.5c3.3,1.6,5.9,4.1,7.7,7.4c1.8,3.3,2.7,7.2,2.7,11.7v30.7c0,1.7-0.3,3.3-1,4.6c-0.7,1.4-1.7,2.4-2.9,3.2
		c-1.2,0.7-2.6,1.1-4.1,1.1c-2.4,0-4.3-0.8-5.8-2.5c-1.5-1.6-2.2-3.8-2.2-6.4V65.8c0-2.2-0.4-4.1-1.1-5.7c-0.7-1.6-1.8-2.9-3.2-3.9
		c-1.4-0.9-3.1-1.4-5-1.4c-2.9,0-5.2,1-6.9,3c-1.7,2-2.6,4.7-2.6,8v27.9c0,1.7-0.3,3.3-1,4.6c-0.7,1.4-1.6,2.4-2.9,3.2
		c-1.2,0.7-2.6,1.1-4.1,1.1c-2.4,0-4.3-0.8-5.8-2.5c-1.5-1.6-2.2-3.8-2.2-6.4V65.8c0-2.2-0.4-4.1-1.1-5.7c-0.7-1.6-1.8-2.9-3.2-3.9
		c-1.4-0.9-3.1-1.4-5-1.4c-2.1,0-3.9,0.5-5.3,1.4c-1.4,0.9-2.5,2.2-3.1,3.8c-0.7,1.6-1,3.6-1,5.8v27.9c0,1.7-0.3,3.3-1,4.6
		c-0.7,1.4-1.6,2.4-2.9,3.2c-1.2,0.7-2.6,1.1-4.1,1.1c-2.4,0-4.3-0.8-5.8-2.5C237.1,98.5,236.3,96.4,236.3,93.7z"/>
	<path fill="#FFFFFF" d="M385,52.6v39.6c0,3.1-0.4,5.6-1.3,7.6c-0.9,1.9-3,2.9-6.4,2.9c-2.2,0-3.9-0.6-5-1.7
		c-1.2-1.1-2.1-2.8-2.6-5.1c-4.2,5-9.3,7.5-15.3,7.5c-4.9,0-9.4-1.3-13.5-4s-7.2-6.3-9.5-11c-2.3-4.7-3.5-10-3.5-15.9
		c0-5.7,1.2-10.9,3.5-15.7c2.4-4.8,5.6-8.5,9.6-11.3c4.1-2.7,8.5-4.1,13.3-4.1c3,0,5.9,0.6,8.6,1.8c2.7,1.2,4.9,3.1,6.7,5.5
		c0.2-2,1.1-3.6,2.5-4.8c1.5-1.3,3.2-1.9,5.1-1.9c3.4,0,5.5,1,6.4,2.9C384.6,46.9,385,49.4,385,52.6z M343.9,72.5
		c0,2.7,0.5,5.3,1.4,7.8c1,2.5,2.4,4.5,4.3,6c1.9,1.5,4.2,2.3,6.9,2.3c3.9,0,7-1.6,9.1-4.9s3.3-7,3.3-11.3c0-2.7-0.5-5.3-1.4-7.8
		c-0.9-2.5-2.3-4.6-4.2-6.2c-1.9-1.6-4.2-2.4-6.8-2.4c-2.7,0-5,0.8-6.9,2.4s-3.4,3.6-4.3,6.2C344.4,67.2,343.9,69.8,343.9,72.5z"/>
	<path fill="#FFFFFF" d="M392.9,93.7V50.1c0-2.5,0.8-4.5,2.5-5.9c1.6-1.4,3.6-2.1,5.7-2.1c5.2,0,7.8,2.2,7.8,6.7h0.2
		c1.6-2.4,3.3-4.1,5-5.1c1.7-1.1,3.8-1.6,6.3-1.6c2.1,0,3.9,0.7,5.4,2.2c1.6,1.5,2.3,3.6,2.3,6.4c0,1.6-0.4,2.8-1.2,3.6
		c-0.8,0.8-1.9,1.5-3.3,2.1c-1.4,0.6-3.1,1.3-5,2c-3.2,1.4-5.6,2.9-7.2,4.3c-1.6,1.4-2.4,3.6-2.4,6.4v24.6c0,1.7-0.3,3.3-1,4.6
		c-0.7,1.4-1.6,2.4-2.9,3.2c-1.2,0.7-2.6,1.1-4.1,1.1c-2.4,0-4.3-0.8-5.8-2.5C393.7,98.5,392.9,96.4,392.9,93.7z"/>
	<path fill="#FFFFFF" d="M443.1,93.7v-37h-3.6c-2.1,0-3.8-0.6-5.1-1.9c-1.3-1.3-1.9-3-1.9-5.1c0-2,0.7-3.6,2-5c1.3-1.3,3-2,5-2h3.6
		v-9.6c0-2.6,0.7-4.8,2.2-6.4c1.5-1.6,3.4-2.5,5.8-2.5c1.6,0,2.9,0.4,4.2,1.1c1.2,0.7,2.2,1.8,2.9,3.2s1,2.9,1,4.6v9.6h4.6
		c2.2,0,4,0.6,5.5,1.7c1.4,1.1,2.2,2.9,2.2,5.3c0,2.4-0.7,4.2-2.1,5.3c-1.4,1.2-3.3,1.7-5.5,1.7h-4.6v37c0,1.7-0.3,3.3-1,4.7
		s-1.6,2.4-2.9,3.2c-1.2,0.7-2.6,1.1-4.1,1.1c-2.4,0-4.3-0.8-5.8-2.5C443.9,98.5,443.1,96.3,443.1,93.7z"/>
	<path fill="#FFFFFF" d="M522.3,77.7h-34.1c0.5,3.8,2.2,6.7,5,8.6c2.8,2,6.2,2.9,10.1,2.9c2.4,0,4.5-0.4,6.2-1.1
		c1.7-0.8,3.8-1.8,6.4-3.2c2.6-1.4,4.4-2.1,5.6-2.1c1.1,0,2.1,0.3,3.2,1c1,0.7,1.9,1.5,2.5,2.6c0.6,1.1,0.9,2.2,0.9,3.3
		c0,1.7-0.8,3.3-2.3,4.9c-1.5,1.6-3.6,3.1-6.1,4.4c-2.6,1.3-5.4,2.3-8.6,3.1c-3.2,0.8-6.2,1.2-9.1,1.2c-5.8,0-11.1-1.3-15.7-4
		c-4.6-2.7-8.2-6.3-10.7-11c-2.5-4.7-3.8-10-3.8-15.8c0-4,0.7-7.9,2.1-11.6c1.4-3.8,3.4-7.1,6-10.1s5.6-5.2,9.2-6.9
		c3.6-1.6,7.4-2.5,11.4-2.5c4.2,0,8.1,0.9,11.7,2.6c3.6,1.7,6.7,4,9.2,6.8c2.5,2.8,4.5,6,5.9,9.4c1.4,3.5,2.1,6.9,2.1,10.3
		C529.3,75.3,526.9,77.7,522.3,77.7z M487.7,67h25.5c-0.4-3.7-1.8-6.6-4-8.9c-2.2-2.2-5.2-3.4-8.8-3.4c-3.4,0-6.3,1.1-8.6,3.4
		C489.6,60.5,488.2,63.4,487.7,67z"/>
	<path fill="#FFFFFF" d="M534.8,93.7V50.1c0-2.5,0.8-4.5,2.5-5.9s3.6-2.1,5.7-2.1c5.2,0,7.8,2.2,7.8,6.7h0.2c1.6-2.4,3.3-4.1,5-5.1
		c1.7-1.1,3.8-1.6,6.3-1.6c2.1,0,3.9,0.7,5.4,2.2c1.6,1.5,2.3,3.6,2.3,6.4c0,1.6-0.4,2.8-1.2,3.6c-0.8,0.8-1.9,1.5-3.3,2.1
		c-1.4,0.6-3.1,1.3-5,2c-3.2,1.4-5.6,2.9-7.2,4.3c-1.6,1.4-2.4,3.6-2.4,6.4v24.6c0,1.7-0.3,3.3-1,4.6c-0.7,1.4-1.6,2.4-2.9,3.2
		c-1.2,0.7-2.6,1.1-4.1,1.1c-2.4,0-4.3-0.8-5.8-2.5C535.5,98.5,534.8,96.4,534.8,93.7z"/>
</g>
</svg>
