<svg xmlns="http://www.w3.org/2000/svg" viewBox="-775 477 48 48" enable-background="new -775 477 48 48" height="40" width="40"><style type="text/css">.st0{opacity:0.19;enable-background:new ;} .st1{fill:#3F3F3F;} .st2{fill:#26B1E6;} .st3{fill:#FFFFFF;}</style><ellipse class="st0" cx="-751.3" cy="521.7" rx="10.4" ry="3.3"/><path class="st1" d="M-751.3 477c-9.4 0-17 7.5-17 16.8 0 10.4 17 28 17 28s17-17.2 17-28c0-9.3-7.6-16.8-17-16.8z"/><path class="st2" d="M-746.4 492.9c-1.2 0-2.1 1-2.1 2.1 0 1.2 1 2.1 2.1 2.1 1.2 0 2.1-1 2.1-2.1s-1-2.1-2.1-2.1z"/><path class="st3" d="M-756.2 488c-1.2 0-2.1 1-2.1 2.1 0 1.2 1 2.1 2.1 2.1s2.1-1 2.1-2.1-1-2.1-2.1-2.1zm4.9 0c-1.2 0-2.1 1-2.1 2.1 0 1.2 1 2.1 2.1 2.1 1.2 0 2.1-1 2.1-2.1s-1-2.1-2.1-2.1zm4.9 0c-1.2 0-2.1 1-2.1 2.1 0 1.2 1 2.1 2.1 2.1 1.2 0 2.1-1 2.1-2.1s-1-2.1-2.1-2.1zm-9.8 4.9c-1.2 0-2.1 1-2.1 2.1 0 1.2 1 2.1 2.1 2.1s2.1-1 2.1-2.1-1-2.1-2.1-2.1zm4.9 0c-1.2 0-2.1 1-2.1 2.1 0 1.2 1 2.1 2.1 2.1 1.2 0 2.1-1 2.1-2.1s-1-2.1-2.1-2.1z"/><circle class="st3" cx="-756.2" cy="499.9" r="2.1"/><circle class="st3" cx="-751.3" cy="499.9" r="2.1"/><circle class="st3" cx="-746.4" cy="499.9" r="2.1"/></svg>