<svg xmlns="http://www.w3.org/2000/svg" viewBox="7 -7 64 64" enable-background="new 7 -7 64 64"><style type="text/css">.st0{fill:#FFFFFF;}</style><path class="st0" d="M39 17c-2.8 0-5-2.2-5-5s2.2-5 5-5 5 2.2 5 5-2.2 5-5 5zm0-8c-1.7 0-3 1.3-3 3s1.3 3 3 3 3-1.3 3-3-1.3-3-3-3zm0 32.6l-.8-1C37.7 40 25 24.3 25 14c0-8.3 6.3-15 14-15s14 6.7 14 15c0 10.3-12.7 26-13.2 26.6l-.8 1zM39 1c-6.6 0-12 5.8-12 13 0 8.2 9.2 20.8 12 24.4 2.8-3.6 12-16.2 12-24.4 0-7.2-5.4-13-12-13zm32.7 50H6.3l12.1-22H28v2h-8.4L9.7 49h58.6l-9.9-18H50v-2h9.6z"/></svg>