<svg xmlns="http://www.w3.org/2000/svg" viewBox="0 0 50 50" enable-background="new 0 0 50 50"><path d="M44.6 13.3h-1.1c-.6 0-1.1.5-1.1 1.1 0 .6.5 1.1 1.1 1.1V47H19c0-.6-.5-1.1-1.1-1.1-.6 0-1.1.5-1.1 1.1v1.1c0 .6.5 1.1 1.1 1.1h26.8c.6 0 1.1-.5 1.1-1.1V14.4c-.1-.6-.6-1.1-1.2-1.1zm-3 30.7V10.2c0-.6-.5-1.1-1.1-1.1h-1.1c-.6 0-1.1.5-1.1 1.1 0 .6.5 1.1 1.1 1.1v31.6H14.8c0-.6-.5-1.1-1.1-1.1-.6 0-1.1.5-1.1 1.1V44c0 .6.5 1.1 1.1 1.1h26.8c.6-.1 1.1-.5 1.1-1.1zm-4.2-4.2V6c0-.6-.5-1.1-1.1-1.1h-3.6c-.6 0-1.1.5-1.1 1.1s.5 1.1 1.1 1.1h2.5v31.6H10.6c0-.6-.5-1.1-1.1-1.1-.6 0-1.1.5-1.1 1.1v1.1c0 .6.5 1.1 1.1 1.1h26.8c.6 0 1.1-.5 1.1-1.1zm-4.2-4.2V9.2l-.1-.1-8-8L25 1H5.4c-.6 0-1.1.5-1.1 1.1v33.7c0 .6.5 1.1 1.1 1.1h26.8c.5-.2 1-.7 1-1.3zm-8-31.1l4.3 4.3h-4.3V4.5zm-18.7 30V3H23v6.9c0 .6.5 1.1 1.1 1.1H31v23.5H6.5z" fill="#010202"/></svg>