<svg xmlns="http://www.w3.org/2000/svg" viewBox="8 114.9 612 612" enable-background="new 8 114.9 612 612"><style type="text/css">.st0{fill:#111111;}</style><path class="st0" d="M314 114.9c-169 0-306 137-306 306s137 306 306 306 306-137 306-306-137-306-306-306zm0 573.7c-147.9 0-267.8-119.9-267.8-267.8S166.1 153.1 314 153.1 581.8 273 581.8 420.9 461.9 688.6 314 688.6zm114.8-286.8h-95.6v-95.6c0-10.6-8.6-19.1-19.1-19.1s-19.1 8.6-19.1 19.1v95.6h-95.6c-10.6 0-19.1 8.6-19.1 19.1s8.6 19.1 19.1 19.1H295v95.6c0 10.6 8.6 19.1 19.1 19.1s19.1-8.6 19.1-19.1V440h95.6c10.6 0 19.1-8.6 19.1-19.1s-8.6-19.1-19.1-19.1z"/></svg>