<svg xmlns="http://www.w3.org/2000/svg" viewBox="0 0 50 50" enable-background="new 0 0 50 50"><path d="M38.4 40.7H33c-.2 0-.4-.2-.4-.4V39c0-.2-.2-.4-.4-.4h-7.5c-.2 0-.4.2-.4.4v1.3c0 .2-.2.4-.4.4h-4c-.2 0-.4.2-.4.4v1.5c0 .2.2.4.4.4h18.2c.2 0 .4-.2.4-.4V41c.2-.2.1-.3-.1-.3zm9-35.2H9.3C8 5.5 6.9 6.6 6.9 7.9v6.3c0 .8-.1.9.5.9h1c.5 0 .4-.1.4-1V7.8c0-.3.3-.6.6-.6h38.1c.3 0 .6.3.6.6v23.5H20.9s-1 0-1 1.2v2.9c0 1.2 1 1.2 1 1.2h26.6c1.3 0 2.4-1.1 2.4-2.4V7.7c-.1-1.2-1.2-2.2-2.5-2.2zM28.3 34.7c-.6 0-1.1-.5-1.1-1.1 0-.6.5-1.1 1.1-1.1.6 0 1.1.5 1.1 1.1 0 .6-.5 1.1-1.1 1.1zM16.1 17.2H2.3c-.9 0-1.6.7-1.6 1.6v22.7c0 .9.7 1.6 1.6 1.6h13.8c.9 0 1.6-.7 1.6-1.6V18.8c-.1-.9-.8-1.6-1.6-1.6zm-8.6 1.6h3.4c.2 0 .3.1.3.3 0 .2-.1.3-.3.3H7.5c-.2 0-.3-.1-.3-.3 0-.1.1-.3.3-.3zm1.7 23.1c-.4 0-.8-.4-.8-.8s.4-.8.8-.8.8.4.8.8-.4.8-.8.8zm7.1-2.3c0 .2-.2.4-.4.4H2.4c-.2 0-.4-.2-.4-.4V20.8c0-.2.2-.4.4-.4h13.5c.2 0 .4.2.4.4v18.8z" fill="#010202"/></svg>