<svg xmlns="http://www.w3.org/2000/svg" viewBox="7 -7 64 64" enable-background="new 7 -7 64 64"><style type="text/css">.st0{fill:#FFFFFF;}</style><path class="st0" d="M48.5 45H7V2h64v15.4h-2V4H9v39h39.5zM30.6 55h16.8v2H30.6zM38 44h2v12h-2zM8 35h40.5v2H8zm63 22H50.9V19.9H71V57zm-18.1-2H69V21.9H52.9V55zm5.8-32.8h4.5v2h-4.5zm-6.8 26H70v2H51.9zm0-23.8H70v2H51.9zm9 29.8c-.9 0-1.6-.7-1.6-1.6 0-.9.7-1.6 1.6-1.6s1.6.7 1.6 1.6c.1.9-.7 1.6-1.6 1.6zm0-2.2c-.3 0-.6.3-.6.6s.3.6.6.6.6-.3.6-.6-.2-.6-.6-.6zm-22-10.2c-.9 0-1.6-.7-1.6-1.6 0-.9.7-1.6 1.6-1.6.9 0 1.6.7 1.6 1.6.1.9-.7 1.6-1.6 1.6zm0-2.3c-.3 0-.6.3-.6.6s.3.6.6.6.6-.3.6-.6-.2-.6-.6-.6z"/></svg>