<svg xmlns="http://www.w3.org/2000/svg" viewBox="7 -7 64 64" enable-background="new 7 -7 64 64"><style type="text/css">.st0{fill:#FFFFFF;}</style><path class="st0" d="M49.4 41.7H7V1.4h60.1v14.5h-1.9V3.2H8.9v36.6h40.5v1.9zm-20.2 9.4H45V53H29.2v-1.9zm6.9-10.3H38v11.3h-1.9V40.8zM7.9 32.3h41.4v1.9H7.9v-1.9zM71 53H52.1V18.2H71V53zm-17-1.9h15.1V20H54v31.1zm5.5-30.8h4.2v1.9h-4.2v-1.9zm-6.4 24.4h17v1.9h-17v-1.9zm0-22.3h17v1.9h-17v-1.9zm8.4 28c-.8 0-1.5-.7-1.5-1.5s.7-1.5 1.5-1.5 1.5.7 1.5 1.5c.1.8-.6 1.5-1.5 1.5zm0-2.1c-.3 0-.6.3-.6.6s.3.6.6.6.6-.3.6-.6-.2-.6-.6-.6zm-24.6-9.6c-.8 0-1.5-.7-1.5-1.5s.7-1.5 1.5-1.5 1.5.7 1.5 1.5c.1.9-.6 1.5-1.5 1.5zm0-2.1c-.3 0-.6.3-.6.6s.3.6.6.6.6-.3.6-.6-.2-.6-.6-.6z"/></svg>