<svg xmlns="http://www.w3.org/2000/svg" viewBox="7 -7 64 64" enable-background="new 7 -7 64 64"><style type="text/css">.st0{fill:#FFFFFF;}</style><path class="st0" d="M58 19c-7.2 0-13-5.8-13-13S50.8-7 58-7 71-1.2 71 6s-5.8 13-13 13zm0-24C51.9-5 47-.1 47 6s4.9 11 11 11 11-4.9 11-11S64.1-5 58-5zM18 46c-6.1 0-11-4.9-11-11s4.9-11 11-11 11 4.9 11 11-4.9 11-11 11zm0-20c-5 0-9 4-9 9s4 9 9 9 9-4 9-9-4-9-9-9zm37 31c-5 0-9-4-9-9s4-9 9-9 9 4 9 9-4 9-9 9zm0-16c-3.9 0-7 3.1-7 7s3.1 7 7 7 7-3.1 7-7-3.1-7-7-7zm-8.4 6.9l-20-8 .7-1.9 20 8-.7 1.9zM26.5 28.8l-1.1-1.7 22-14 1.1 1.7-22 14z"/></svg>