<svg xmlns="http://www.w3.org/2000/svg" width="64" height="64" viewBox="-265 388.9 64 64" enable-background="new -265 388.9 64 64"><style type="text/css">.st0{fill:#FFFFFF;}</style><path class="st0" d="M-232.6 405.8c3.9 0 7.1 3.3 7.1 8.1 0 4.2-1.5 6.7-4 7.7-.5.2-.8.6-.8 1.1-.2 4.6 2.9 5.7 3.9 5.9 6.7 1.6 8.4 3.6 8.6 8h-29.5c.1-1.7.4-3 1.1-4.1l.1-.1c1.2-1.7 3.4-2.8 7.4-3.7 1-.2 4.1-1.4 3.9-5.9 0-.5-.3-.9-.8-1.1-2.6-1-4-3.5-4-7.7-.1-4.9 3.1-8.2 7-8.2m-18.6 3.6c2.6 0 4.7 2.1 4.7 5.3 0 1.4-.3 4.1-2.7 5-.5.2-.8.6-.8 1.1-.1 2.8 1.5 4.2 3.1 4.6 2 .5 3.3 1 4.2 1.7-2.4.9-4 1.9-5.1 3.2v.1h-13.5c.2-2.5 1.2-3.9 5.9-5 1.6-.4 3.2-1.8 3.1-4.6 0-.5-.3-.9-.8-1.1-2.4-.9-2.7-3.7-2.7-5-.1-3.2 2-5.3 4.6-5.3m37.1 0c2.6 0 4.7 2.1 4.7 5.3 0 1.4-.3 4.1-2.7 5-.5.2-.8.6-.8 1.1-.1 2.8 1.5 4.2 3.1 4.6 4.6 1.1 5.7 2.5 5.9 5h-13.5v-.1c-1.1-1.3-2.8-2.4-5.1-3.2.9-.7 2.3-1.2 4.2-1.7 1.6-.4 3.2-1.8 3.1-4.6 0-.5-.3-.9-.8-1.1-2.4-.9-2.7-3.7-2.7-5 0-3.2 2.1-5.3 4.6-5.3m-18.5-5.6c-5.2 0-9.1 4.3-9.1 10.1s2.5 8.3 4.9 9.4c0 2.5-1.5 3.2-2.4 3.4-.2 0-.4.1-.5.1l-1.7-1.3c-1.1-.8-2.7-1.5-5-2-.6-.1-1.5-.6-1.5-2.1 2.2-1.1 3.5-3.4 3.5-6.7 0-4.1-2.9-7.3-6.7-7.3-3.8 0-6.7 3.1-6.7 7.3 0 3.2 1.2 5.6 3.5 6.7-.1 1.5-1 2-1.5 2.1-4.3 1.1-7 2.6-7.4 6.8l-.2 2.2h15c-.5 1.1-.8 2.4-.9 4.1l-.1 2.1h33.7l-.1-2.1c-.1-1.6-.4-3-.9-4.1h15l-.2-2.2c-.3-4.2-3.1-5.7-7.4-6.8-.6-.1-1.5-.6-1.5-2.1 2.2-1.1 3.5-3.4 3.5-6.7 0-4.1-2.9-7.3-6.7-7.3-3.8 0-6.7 3.1-6.7 7.3 0 3.2 1.2 5.6 3.5 6.7-.1 1.5-1 2-1.5 2.1-2.3.6-3.8 1.2-5 2l-1.7 1.3c-.2 0-.4-.1-.5-.1-.9-.2-2.3-1-2.4-3.4 2.3-1.1 4.9-3.5 4.9-9.4-.2-5.8-4.1-10.1-9.2-10.1z"/></svg>