<svg xmlns="http://www.w3.org/2000/svg" viewBox="-563 388.9 64 64" enable-background="new -563 388.9 64 64"><style type="text/css">.st0{fill:#FFFFFF;}</style><path class="st0" d="M-544.7 431.3l1.5 1.4 12.2-12.3 12.3 12.3 1.4-1.5-12.3-12.2 12.3-12.4-1.5-1.4-12.2 12.4-12.3-12.3-1.5 1.5 12.4 12.2zm13.7 21.6c8.5 0 16.6-3.3 22.6-9.4 6-6 9.4-14.1 9.4-22.6s-3.3-16.6-9.4-22.6c-6-6-14.1-9.4-22.6-9.4-8.5 0-16.6 3.3-22.6 9.4-6 6-9.4 14.1-9.4 22.6s3.3 16.6 9.4 22.6c6 6.1 14.1 9.4 22.6 9.4zm-21.2-53.2c5.7-5.7 13.2-8.8 21.2-8.8s15.5 3.1 21.2 8.8c5.7 5.7 8.8 13.2 8.8 21.2s-3.1 15.5-8.8 21.2c-5.7 5.7-13.2 8.8-21.2 8.8s-15.5-3.1-21.2-8.8c-5.7-5.7-8.8-13.2-8.8-21.2s3.1-15.6 8.8-21.2z"/></svg>