<svg xmlns="http://www.w3.org/2000/svg" viewBox="-265 388.9 64 64" enable-background="new -265 388.9 64 64"><style type="text/css">.st0{fill:#FFFFFF;}</style><path class="st0" d="M-205 410.9c2.2 0 4-1.8 4-4s-1.8-4-4-4c-1.9 0-3.4 1.3-3.9 3H-227v-5h-12v5h-18.1c-.4-1.7-2-3-3.9-3-2.2 0-4 1.8-4 4s1.8 4 4 4c1.9 0 3.4-1.3 3.9-3h9.4c-10.4 4.9-12 17.4-12.2 21h-5v12h12v-12h-5c.1-1.8.6-6 2.5-10.1 3.2-6.9 8.7-10.6 16.5-10.9v5h12v-5c7.7.3 13.3 3.9 16.4 10.8 1.9 4.1 2.4 8.3 2.5 10.1h-5v12h12v-12h-5c-.3-3.6-1.9-16.1-12.2-21h9.4c.4 1.8 1.9 3.1 3.8 3.1zm0-6c1.1 0 2 .9 2 2s-.9 2-2 2-2-.9-2-2 .9-2 2-2zm-56 4c-1.1 0-2-.9-2-2s.9-2 2-2 2 .9 2 2-.9 2-2 2zm6 30h-8v-8h8v8zm26-28h-8v-8h8v8zm26 28h-8v-8h8v8z"/></svg>