<?xml version="1.0" encoding="utf-8"?>
<!-- Generator: Adobe Illustrator 19.1.0, SVG Export Plug-In . SVG Version: 6.00 Build 0)  -->
<!DOCTYPE svg PUBLIC "-//W3C//DTD SVG 1.1//EN" "http://www.w3.org/Graphics/SVG/1.1/DTD/svg11.dtd">
<svg version="1.1" id="Capa_1" xmlns="http://www.w3.org/2000/svg" xmlns:xlink="http://www.w3.org/1999/xlink" x="0px" y="0px"
	 viewBox="-272 396.2 49.7 49.7" style="enable-background:new -272 396.2 49.7 49.7;" xml:space="preserve">
<style type="text/css">
	.st0{fill:#FFFFFF;}
</style>
<g>
	<g>
		<g>
			<path d="M-247.2,396.2c-13.7,0-24.8,11.1-24.8,24.8c0,13.7,11.1,24.8,24.8,24.8c13.7,0,24.8-11.1,24.8-24.8
				C-222.4,407.3-233.5,396.2-247.2,396.2z"/>
		</g>
	</g>
</g>
<g>
	<path class="st0" d="M-252,411.9c2,0.1,4,0.8,5.5,2.2c0,0,0.1,0,0.1,0.1c-0.9,0.9-1.7,1.8-2.5,2.7c-1.7-1.3-3.5-1.6-5.4-1
		c-1.5,0.5-2.6,1.6-3.2,3c-1.2,2.9,0.3,6.3,3.4,7.2c3.2,1,6-1,6.7-3.2c-1.7,0-3.4,0-5.1,0c0-1.3,0-2.5,0-3.8c3,0,6,0,9.1,0
		c0.1,0.3,0.1,0.6,0.2,0.9c0.3,3-0.8,5.9-3.1,7.9c-2.1,1.9-5.1,2.7-7.9,2.1c-5-1-8.2-5.8-7.2-10.7c0.6-2.9,2.3-5.2,4.9-6.5
		C-255.2,412.1-253.6,411.8-252,411.9z"/>
	<path class="st0" d="M-232.7,421.7c-1.1,0-2.1,0-3.2,0c0,1.1,0,2.1,0,3.2c-0.8,0-1.5,0-2.3,0c0-1.1,0-2.1,0-3.2c-1.1,0-2.1,0-3.2,0
		c0-0.8,0-1.5,0-2.3c1,0,2.1,0,3.2,0c0-1.1,0-2.1,0-3.2c0.8,0,1.5,0,2.3,0c0,1,0,2.1,0,3.2c1.1,0,2.2,0,3.2,0
		C-232.7,420.2-232.7,420.9-232.7,421.7z"/>
</g>
</svg>
