<?xml version="1.0" encoding="utf-8"?>
<!-- Generator: Adobe Illustrator 19.1.0, SVG Export Plug-In . SVG Version: 6.00 Build 0)  -->
<!DOCTYPE svg PUBLIC "-//W3C//DTD SVG 1.1//EN" "http://www.w3.org/Graphics/SVG/1.1/DTD/svg11.dtd">
<svg version="1.1" id="Capa_1" xmlns="http://www.w3.org/2000/svg" xmlns:xlink="http://www.w3.org/1999/xlink" x="0px" y="0px"
	 viewBox="-272 396.2 49.7 49.7" style="enable-background:new -272 396.2 49.7 49.7;" xml:space="preserve">
<path d="M-247.2,396.2c-13.7,0-24.8,11.1-24.8,24.8c0,13.7,11.1,24.8,24.8,24.8c13.7,0,24.8-11.1,24.8-24.8
	S-233.5,396.2-247.2,396.2z M-246.1,429.3c-2.5,2.3-6.1,3.2-9.4,2.5c-6-1.2-9.8-6.9-8.6-12.7c0.7-3.5,2.7-6.2,5.8-7.7
	c1.5-0.8,3.5-1.2,5.4-1.1c2.4,0.1,4.8,1,6.6,2.6c0,0,0.1,0,0.1,0.1c-1.1,1.1-2,2.1-3,3.2c-2-1.5-4.2-1.9-6.4-1.2
	c-1.8,0.6-3.1,1.9-3.8,3.6c-1.4,3.5,0.4,7.5,4.1,8.6c3.8,1.2,7.1-1.2,8-3.8c-2,0-4.1,0-6.1,0c0-1.5,0-3,0-4.5c3.6,0,7.1,0,10.8,0
	c0.1,0.4,0.1,0.7,0.2,1.1C-242,423.4-243.3,426.9-246.1,429.3z M-229.9,421.9c-1.3,0-2.5,0-3.8,0c0,1.3,0,2.5,0,3.8
	c-1,0-1.8,0-2.7,0c0-1.3,0-2.5,0-3.8c-1.3,0-2.5,0-3.8,0c0-1,0-1.8,0-2.7c1.2,0,2.5,0,3.8,0c0-1.3,0-2.5,0-3.8c1,0,1.8,0,2.7,0
	c0,1.2,0,2.5,0,3.8c1.3,0,2.6,0,3.8,0C-229.9,420.1-229.9,420.9-229.9,421.9z"/>
</svg>
