<?xml version="1.0" encoding="utf-8"?>
<!-- Generator: Adobe Illustrator 18.0.0, SVG Export Plug-In . SVG Version: 6.00 Build 0)  -->
<!DOCTYPE svg PUBLIC "-//W3C//DTD SVG 1.1//EN" "http://www.w3.org/Graphics/SVG/1.1/DTD/svg11.dtd">
<svg version="1.1" id="Capa_1" xmlns="http://www.w3.org/2000/svg" xmlns:xlink="http://www.w3.org/1999/xlink" x="0px" y="0px"
	 viewBox="0 0 1190.6 841.9" enable-background="new 0 0 1190.6 841.9" xml:space="preserve">
<g>
	<g>
		<path d="M779.4,521.9c8.9,5.9,18.4,10.4,28.2,13.4l10.2,26.8l19.6,51.7l19.6-51.7l10.2-26.8c9.9-3,19.3-7.5,28.2-13.4
			c6.6,3.7,16.1,9.1,25.6,15c24.2,15.1,30.1,21.9,31.1,23.1c13.3,17.3,28.5,69.2,40.4,137.4H682.3c11.9-68.2,27.1-120.1,40.4-137.4
			C728.2,552.9,751.4,537.3,779.4,521.9 M780.5,498.3c-1.1,0-2.2,0.3-3.2,0.8c-9.7,5.2-58.8,31.9-71.2,48
			c-24,31.1-41.1,124.6-47.3,163.4c-0.3,2,0.2,3.9,1.5,5.4c1.3,1.5,3.2,2.4,5.1,2.4h344c2,0,3.9-0.9,5.1-2.4
			c1.3-1.5,1.8-3.5,1.5-5.4c-6.2-38.8-23.3-132.3-47.3-163.4c-12.4-16.1-61.5-42.8-71.2-48c-1-0.5-2.1-0.8-3.2-0.8
			c-1.5,0-3,0.5-4.2,1.4c-10.8,8.5-22.7,14.2-35.2,17c-2.2,0.5-4,2.1-4.8,4.2l-12.8,33.7l-12.8-33.7c-0.8-2.1-2.6-3.7-4.8-4.2
			c-12.5-2.8-24.4-8.5-35.2-17C783.4,498.8,782,498.3,780.5,498.3L780.5,498.3z"/>
	</g>
	<g>
		<path d="M837.5,307L837.5,307c18.5,0,33.5,2.4,44.7,7.1c9,3.8,15.8,9.1,20.6,16.3c10.7,15.9,12.1,41.2,12.1,66.2
			c0,49.4-34.7,89.6-77.5,89.6c-42.7,0-77.5-40.2-77.5-89.6c0-3.3,0-6.7,0.1-10.1l0.2-10.2l0.8-8.4c2-21.1,7.3-35.2,16.5-44.2
			C789.2,312.5,808.8,307,837.5,307 M837.5,288c-72.2,0-90.9,33-95.2,78.1c-10.6,5.7-23.3,15.1-28.9,29.5
			c-5.4,14.1-3.1,29.7,6.8,46.5c-0.7,3-0.2,6.3,1.7,9l4,5.8c2.1,3,5.6,4.8,9.3,4.8c2.3,0,4.6-0.7,6.5-2.1c2.5-1.7,4.1-4.3,4.7-7.3
			c0.5-3-0.1-6-1.9-8.5l-4-5.8c-1.5-2.2-3.7-3.7-6.2-4.4c-7.2-12.2-9.1-23-5.6-32.1c2.4-6.4,7.2-11.5,12.4-15.4
			c-0.1,3.4-0.1,6.9-0.1,10.5c0,60,43.2,108.6,96.5,108.6c53.3,0,96.5-48.6,96.5-108.6C933.9,336.6,925.2,288,837.5,288L837.5,288z"
			/>
	</g>
	<path d="M582.5,326.1l-47.6-80.8c-2.6-4.4-7.4-7.1-12.6-7c-5.2,0.1-9.8,3.1-12.2,7.6l-71.5,137l-41-51.4c-2.7-3.4-6.8-5.3-11.1-5.3
		H279.3c-7.8,0-14.2,6.4-14.2,14.2c0,7.8,6.4,14.2,14.2,14.2h100.3l50.4,63.1c2.7,3.4,6.8,5.3,11.1,5.3c0.5,0,0.9,0,1.4-0.1
		c4.8-0.5,9-3.3,11.2-7.6l69.8-133.6l38.7,65.8c2.6,4.3,7.2,7,12.2,7h117c7.8,0,14.2-6.4,14.2-14.2c0-7.8-6.4-14.2-14.2-14.2
		L582.5,326.1L582.5,326.1z"/>
</g>
<path d="M627.2,583H658c3.7-11.3,8.5-23.4,18.4-32.6h-79.5H456.2H205.9V147.9h641.4v114.1c5.4-0.4,19.6-1.3,31.5,4.3v-130
	c0-10.5-8.5-19-19-19H193.3c-10.5,0-19,8.5-19,19V564c0,10.5,8.5,19,19,19l235.5,0c-4.2,25.3-13.8,70.3-34.2,114.6
	c-2.7,5.9-2.2,12.7,1.3,18.2c3.5,5.4,9.5,8.7,16,8.7h213.6l4-23.3H421.7c0,0,24.5-47.8,32.1-118.2"/>
</svg>
