<?xml version="1.0" encoding="utf-8"?>
<!-- Generator: Adobe Illustrator 18.0.0, SVG Export Plug-In . SVG Version: 6.00 Build 0)  -->
<!DOCTYPE svg PUBLIC "-//W3C//DTD SVG 1.1//EN" "http://www.w3.org/Graphics/SVG/1.1/DTD/svg11.dtd">
<svg version="1.1" id="Capa_1" xmlns="http://www.w3.org/2000/svg" xmlns:xlink="http://www.w3.org/1999/xlink" x="0px" y="0px"
	 viewBox="0 0 612 612" enable-background="new 0 0 612 612" xml:space="preserve">
<g>
	<path d="M85.3,502.8c13.2,0,23.9,10.7,23.9,23.9c0,10.4-7,19.8-16.9,22.9l-42.8,13l13-42.8C65.5,509.8,74.9,502.8,85.3,502.8
		 M85.3,478.8c-21.6,0-39.9,14.3-45.8,34l-20.8,68.6c-0.3,0.9-0.4,1.8-0.4,2.8c0,5.3,4.3,9.6,9.6,9.6c1,0,1.9-0.2,2.8-0.4l68.6-20.8
		c19.6-6,34-24.2,34-45.8C133.2,500.2,111.8,478.8,85.3,478.8L85.3,478.8z"/>
</g>
<g>
	<path d="M583.3,24c1.6,0,2.7,0.8,3.3,1.4c0.6,0.6,1.3,1.7,1.3,3.2l0,0v0c0,95.6-4.3,195.4-55.2,273.7c-25,38.4-61,73.2-107.2,103.6
		l-10,6.6l-0.7,12c-1.9,31.8-11.1,63.3-26.4,91.3c-15.4,28.1-37.3,52.7-63.3,71.2c-0.8,0.6-1.8,0.9-2.8,0.9c-0.6,0-1.2-0.1-1.8-0.3
		c-1.5-0.7-2.6-2-2.9-3.6c-4.8-28.4-16.9-59.2-36-91.5l-9.3-15.8l-17.7,4.8c-18.9,5.2-36.7,9.2-52.9,12c-0.2,0-0.5,0.1-0.8,0.1
		c-1.3,0-2.4-0.5-3.3-1.4l-78-77.9c-1.1-1.1-1.5-2.6-1.3-4.1c2.8-16.2,6.8-33.9,12-52.8l4.8-17.7l-15.8-9.3
		c-32.3-19.1-63.1-31.2-91.5-36c-1.6-0.3-3-1.3-3.6-2.9c-0.6-1.5-0.4-3.2,0.5-4.6c18.5-26,43.2-47.9,71.2-63.3
		c27.9-15.4,59.5-24.5,91.3-26.5l12-0.7l6.6-10c30.3-46.1,65.2-82.2,103.6-107.2c35.4-23,76.9-38.2,126.9-46.5
		C480.6,25.5,527.1,24,583.3,24 M410.9,273c39.6,0,71.9-32.2,71.9-71.9c0-39.6-32.2-71.9-71.9-71.9S339,161.5,339,201.1
		C339,240.7,371.3,273,410.9,273 M583.3,0C480,0,380.3,4.5,296.5,59.1c-44.2,28.8-80.9,69.1-110.5,114.1
		C114.2,177.6,47.5,213.9,5.3,273c-5.7,8.1-6.9,18.5-3.2,27.7c3.8,9.2,12,15.7,21.8,17.4c25.8,4.3,54.4,15.9,83.3,33
		c-5.2,19.1-9.5,37.7-12.5,55c-1.6,9.2,1.4,18.6,8,25.2l77.9,77.9c5.4,5.4,12.8,8.4,20.3,8.4c1.6,0,3.3-0.1,4.9-0.4
		c17.4-3,35.9-7.3,55.1-12.5c17.1,28.9,28.7,57.5,33,83.3c1.6,9.8,8.2,18,17.4,21.8c3.5,1.5,7.3,2.2,11,2.2c5.9,0,11.7-1.8,16.7-5.3
		c59.1-42.1,95.4-108.9,99.7-180.6c45-29.6,85.3-66.3,114.1-110.6C607.4,231.7,612,127.9,612,28.7C612,12.9,599.1,0,583.3,0L583.3,0
		z M410.9,249c-26.4,0-47.9-21.4-47.9-47.9c0-26.4,21.4-47.9,47.9-47.9c26.4,0,47.9,21.4,47.9,47.9C458.8,227.6,437.4,249,410.9,249
		L410.9,249z"/>
</g>
</svg>
