<?xml version="1.0" encoding="utf-8"?>
<!-- Generator: Adobe Illustrator 19.1.0, SVG Export Plug-In . SVG Version: 6.00 Build 0)  -->
<!DOCTYPE svg PUBLIC "-//W3C//DTD SVG 1.1//EN" "http://www.w3.org/Graphics/SVG/1.1/DTD/svg11.dtd">
<svg version="1.1" id="Layer_2" xmlns="http://www.w3.org/2000/svg" xmlns:xlink="http://www.w3.org/1999/xlink" x="0px" y="0px"
	 viewBox="230 -230 490 490" style="enable-background:new 230 -230 490 490;" xml:space="preserve">
<g>
	<g>
		<g>
			<path d="M647,87.8c16.8,9.4,28.1,17.4,30.5,20.5c7.2,9.3,15.7,38.1,22.3,75H526.3c6.7-37,15.1-65.7,22.3-75
				c2.4-3.1,13.6-11,30.4-20.4c4.5,2.8,9.2,5,14.1,6.6l5.4,14.2l14.5,38.1l14.5-38.1l5.4-14.2C637.8,92.8,642.5,90.6,647,87.8
				 M646.3,70.3c-0.9,0-1.8,0.3-2.5,0.8c-6.3,5-13.3,8.3-20.6,9.9c-1.3,0.3-2.3,1.2-2.8,2.5l-7.5,19.7l-7.5-19.7
				c-0.5-1.2-1.5-2.2-2.8-2.5c-7.3-1.6-14.3-5-20.6-9.9c-0.6-0.5-1.5-0.8-2.3-0.8c-0.6,0-1.3,0.2-1.9,0.5c-5.7,3-34.3,18.6-41.6,28
				c-14,18.2-24,72.8-27.6,95.4c-0.2,1.2,0.1,2.3,0.9,3.2c0.8,0.9,1.9,1.4,3,1.4h200.9c1.2,0,2.3-0.5,3-1.4c0.8-0.9,1.1-2,0.9-3.2
				c-3.6-22.7-13.6-77.3-27.6-95.4c-7.2-9.4-35.9-25-41.6-28C647.6,70.5,647,70.3,646.3,70.3L646.3,70.3z"/>
		</g>
	</g>
	<g>
		<g>
			<path d="M613.1-37c26.7,0,32.6,8.8,34.5,11.7C653.2-17,654-3,654,10.9c0,26.4-18.3,47.9-40.9,47.9c-22.5,0-40.9-21.5-40.9-47.9
				c0-2,0-3.9,0.1-5.7l0.2-5.8l0.5-4.9c1.1-11.2,3.7-18.6,8.3-23.1C587.1-34.2,597.8-37,613.1-37 M613.1-52.5
				c-42.2,0-53.1,19.3-55.6,45.6c-6.2,3.3-13.6,8.8-16.9,17.2c-3.2,8.2-1.8,17.3,4,27.2c-0.4,1.8-0.1,3.7,1,5.3l2.3,3.4
				c1.2,1.8,3.3,2.8,5.4,2.8c1.3,0,2.7-0.4,3.8-1.2c1.5-1,2.4-2.5,2.7-4.3c0.3-1.8-0.1-3.5-1.1-5l-2.3-3.4c-0.9-1.3-2.2-2.2-3.6-2.6
				c-4.2-7.1-5.3-13.4-3.3-18.7c1.4-3.7,4.2-6.7,7.2-9c-0.1,2-0.1,4-0.1,6.1c0,35,25.2,63.4,56.4,63.4c31.1,0,56.4-28.4,56.4-63.4
				C669.4-24.2,664.4-52.5,613.1-52.5L613.1-52.5z"/>
		</g>
	</g>
	<path d="M471.5-35.5l-27.8-47.2c-1.5-2.6-4.3-4.1-7.4-4.1c-3,0.1-5.7,1.8-7.1,4.4l-41.8,80l-23.9-30c-1.6-2-4-3.1-6.5-3.1h-62.6
		c-4.6,0-8.3,3.7-8.3,8.3c0,4.6,3.7,8.3,8.3,8.3H353L382.4,18c1.6,2,4,3.1,6.5,3.1c0.3,0,0.5,0,0.8-0.1c2.8-0.3,5.3-1.9,6.5-4.4
		l40.8-78L459.6-23c1.5,2.5,4.2,4.1,7.1,4.1h68.3c4.6,0,8.3-3.7,8.3-8.3c0-4.6-3.7-8.3-8.3-8.3L471.5-35.5L471.5-35.5z"/>
</g>
<path d="M497.6,114.5h18c2.2-6.6,5-17.9,10.7-23.3h-46.4h-82.2H255.8v-234.6H624v82.9c3.2-0.2,13.6-0.8,20.6,2.5v-96.4
	c0-6.1-5-11.1-11.1-11.1H244.2c-6.1,0-11.1,5-11.1,11.1v257.8c0,6.1,5,11.1,11.1,11.1h137.6c-2.5,14.8-8.1,41.1-20,66.9
	c-1.6,3.4-1.3,7.4,0.8,10.6c2,3.2,5.5,5.1,9.3,5.1h124.8l2.3-21H391.2c0,0,5.3-21.2,14.6-61.6"/>
</svg>
