<?xml version="1.0" encoding="UTF-8"?><!DOCTYPE svg PUBLIC "-//W3C//DTD SVG 1.1//EN" "http://www.w3.org/Graphics/SVG/1.1/DTD/svg11.dtd"><svg xmlns="http://www.w3.org/2000/svg"><symbol id="build" viewBox="0 0 490 490">
<g>
	<path d="M462.806,68.109H27.193C12.199,68.109,0,80.307,0,95.301v299.396c0,14.994,12.199,27.193,27.193,27.193h435.613
		c14.995,0,27.194-12.199,27.194-27.193V95.301C490,80.307,477.801,68.109,462.806,68.109z M27.193,88.109h435.613
		c3.967,0,7.194,3.227,7.194,7.192V126.1H20V95.301C20,91.335,23.226,88.109,27.193,88.109z M462.806,401.891H27.193
		c-3.966,0-7.193-3.227-7.193-7.193V146.1h450v248.598C470,398.665,466.772,401.891,462.806,401.891z"/>
	<path d="M188.111,210.43c-3.905-3.905-10.237-3.904-14.142,0.001l-45.152,45.152c-1.875,1.875-2.929,4.419-2.929,7.071
		c0,2.652,1.054,5.195,2.929,7.071l45.152,45.151c1.953,1.953,4.512,2.929,7.071,2.929s5.119-0.977,7.071-2.929
		c3.905-3.905,3.905-10.237-0.001-14.143l-38.081-38.08l38.082-38.082C192.017,220.668,192.017,214.335,188.111,210.43z"/>
	<path d="M308.912,210.431c-3.905-3.905-10.235-3.905-14.143-0.001c-3.905,3.905-3.905,10.237,0,14.143l38.081,38.082l-38.081,38.08
		c-3.905,3.905-3.905,10.237,0,14.143c1.953,1.953,4.512,2.929,7.071,2.929c2.559,0,5.118-0.977,7.071-2.929l45.152-45.151
		c1.875-1.876,2.929-4.419,2.929-7.071c0-2.652-1.054-5.196-2.929-7.071L308.912,210.431z"/>
	<path d="M269.591,208.576c-4.931-2.491-10.945-0.513-13.436,4.417l-47.283,93.591c-2.49,4.929-0.513,10.944,4.417,13.435
		c1.446,0.73,2.985,1.076,4.501,1.076c3.653,0,7.173-2.009,8.934-5.492l47.283-93.591
		C276.497,217.082,274.52,211.067,269.591,208.576z"/>
</g>
</symbol><symbol id="chevron" viewBox="0 0 454.52 454.52">
<g>
	<path d="M378.135,227.256L206.224,55.354c-12.354-12.359-12.354-32.394,0-44.748c12.354-12.359,32.388-12.359,44.747,0
		L445.258,204.89c6.177,6.18,9.262,14.271,9.262,22.366c0,8.098-3.091,16.195-9.262,22.372L250.971,443.91
		c-12.359,12.365-32.394,12.365-44.747,0c-12.354-12.354-12.354-32.391,0-44.744L378.135,227.256z M9.265,399.166
		c-12.354,12.354-12.354,32.391,0,44.744c12.354,12.365,32.382,12.365,44.748,0l194.287-194.281
		c6.177-6.177,9.257-14.274,9.257-22.372c0-8.095-3.086-16.192-9.257-22.366L54.013,10.606c-12.365-12.359-32.394-12.359-44.748,0
		c-12.354,12.354-12.354,32.388,0,44.748L181.18,227.256L9.265,399.166z"/>
</g>

</symbol><symbol id="design" viewBox="0 0 490 490">
<g>
	<path d="M253.768,291.142c0,0-2.534-5.192-8.768-5.192c-6.233,0-8.739,5.175-8.749,5.192l-65.413,118.16
		c-2.645,4.777-0.929,10.815,3.807,13.535c1.319,0.758,32.309,18.992,32.309,57.163c0,5.522,4.478,10,10,10h56.093
		c5.522,0,10-4.478,10-10c0-38.171,30.99-56.405,32.273-57.143c4.787-2.695,6.504-8.749,3.843-13.556
		C319.162,409.302,253.781,291.166,253.768,291.142z M263.603,470h-37.206c-3.484-30.833-22.496-50.071-33.697-58.897L235,334.67
		v41.057c0,5.522,4.477,10,10,10c5.522,0,10-4.478,10-10V334.67l42.301,76.434C286.1,419.929,267.087,439.167,263.603,470z"/>
	<path d="M447.486,0h-41.857c-5.522,0-10,4.477-10,10v41.857c0,5.523,4.478,10,10,10h8.15
		c-12.705,70.071-67.543,125.091-137.85,137.846v-8.146c0-5.522-4.478-10-10-10H224.07c-5.522,0-10,4.478-10,10v8.146
		C143.753,186.947,88.928,131.956,76.22,61.857h8.152c5.522,0,10-4.477,10-10V10c0-5.523-4.478-10-10-10H42.514
		c-5.522,0-10,4.477-10,10v41.857c0,5.523,4.478,10,10,10h13.428c6.332,38.735,24.727,75.129,52.386,103.289
		c15.011,15.284,32.497,27.884,51.519,37.339H90.983c-3.091-4.229-8.073-6.988-13.712-6.988c-9.385,0-16.99,7.605-16.99,16.988
		c0,9.384,7.605,16.99,16.99,16.99c5.639,0,10.623-2.76,13.713-6.99H214.07v10.93c0,5.523,4.478,10,10,10h41.859
		c5.522,0,10-4.477,10-10v-10.93h123.086c3.091,4.23,8.074,6.99,13.715,6.99c9.383,0,16.988-7.607,16.988-16.99
		c0-9.383-7.605-16.988-16.988-16.988c-5.641,0-10.623,2.759-13.714,6.988h-68.865c19.063-9.477,36.585-22.108,51.617-37.435
		c27.604-28.145,45.965-64.506,52.289-103.193h13.429c5.522,0,10-4.477,10-10V10C457.486,4.477,453.009,0,447.486,0z M52.514,20
		h21.858v21.857H52.514V20z M255.93,223.415H234.07v-21.858h21.859V223.415z M437.486,41.857h-21.857V20h21.857V41.857z"/>
</g>

</symbol><symbol id="facebook" viewBox="0 0 49.652 49.652">
<g>
	<g>
		<path d="M24.826,0C11.137,0,0,11.137,0,24.826c0,13.688,11.137,24.826,24.826,24.826c13.688,0,24.826-11.138,24.826-24.826
			C49.652,11.137,38.516,0,24.826,0z M31,25.7h-4.039c0,6.453,0,14.396,0,14.396h-5.985c0,0,0-7.866,0-14.396h-2.845v-5.088h2.845
			v-3.291c0-2.357,1.12-6.04,6.04-6.04l4.435,0.017v4.939c0,0-2.695,0-3.219,0c-0.524,0-1.269,0.262-1.269,1.386v2.99h4.56L31,25.7z
			"/>
	</g>
</g>

</symbol><symbol id="google" viewBox="-272 396.2 49.7 49.7">
<path d="M-247.2,396.2c-13.7,0-24.8,11.1-24.8,24.8c0,13.7,11.1,24.8,24.8,24.8c13.7,0,24.8-11.1,24.8-24.8
	S-233.5,396.2-247.2,396.2z M-246.1,429.3c-2.5,2.3-6.1,3.2-9.4,2.5c-6-1.2-9.8-6.9-8.6-12.7c0.7-3.5,2.7-6.2,5.8-7.7
	c1.5-0.8,3.5-1.2,5.4-1.1c2.4,0.1,4.8,1,6.6,2.6c0,0,0.1,0,0.1,0.1c-1.1,1.1-2,2.1-3,3.2c-2-1.5-4.2-1.9-6.4-1.2
	c-1.8,0.6-3.1,1.9-3.8,3.6c-1.4,3.5,0.4,7.5,4.1,8.6c3.8,1.2,7.1-1.2,8-3.8c-2,0-4.1,0-6.1,0c0-1.5,0-3,0-4.5c3.6,0,7.1,0,10.8,0
	c0.1,0.4,0.1,0.7,0.2,1.1C-242,423.4-243.3,426.9-246.1,429.3z M-229.9,421.9c-1.3,0-2.5,0-3.8,0c0,1.3,0,2.5,0,3.8
	c-1,0-1.8,0-2.7,0c0-1.3,0-2.5,0-3.8c-1.3,0-2.5,0-3.8,0c0-1,0-1.8,0-2.7c1.2,0,2.5,0,3.8,0c0-1.3,0-2.5,0-3.8c1,0,1.8,0,2.7,0
	c0,1.2,0,2.5,0,3.8c1.3,0,2.6,0,3.8,0C-229.9,420.1-229.9,420.9-229.9,421.9z"/>
</symbol><symbol id="linkedin" viewBox="0 0 49.652 49.652">
<g>
	<g>
		<g>
			<path d="M29.35,21.298c-2.125,0-3.074,1.168-3.605,1.988v-1.704h-4.002c0.052,1.128,0,12.041,0,12.041h4.002v-6.727
				c0-0.359,0.023-0.72,0.131-0.977c0.29-0.72,0.948-1.465,2.054-1.465c1.448,0,2.027,1.104,2.027,2.724v6.442h4.002h0.001v-6.905
				C33.958,23.019,31.983,21.298,29.35,21.298z M25.742,23.328h-0.025c0.008-0.014,0.02-0.027,0.025-0.041V23.328z"/>
			<rect x="15.523" y="21.582" width="4.002" height="12.041"/>
			<path d="M24.826,0C11.137,0,0,11.137,0,24.826c0,13.688,11.137,24.826,24.826,24.826c13.688,0,24.826-11.138,24.826-24.826
				C49.652,11.137,38.516,0,24.826,0z M37.991,36.055c0,1.056-0.876,1.91-1.959,1.91H13.451c-1.08,0-1.957-0.854-1.957-1.91V13.211
				c0-1.055,0.877-1.91,1.957-1.91h22.581c1.082,0,1.959,0.856,1.959,1.91V36.055z"/>
			<path d="M17.551,15.777c-1.368,0-2.264,0.898-2.264,2.08c0,1.155,0.869,2.08,2.211,2.08h0.026c1.396,0,2.265-0.925,2.265-2.08
				C19.762,16.676,18.921,15.777,17.551,15.777z"/>
		</g>
	</g>
</g>

</symbol><symbol id="play" viewBox="142 -142.1 314.1 314.1">
<path d="M435-63.6c-43.4-75.1-139.4-100.8-214.5-57.4C145.4-77.7,119.7,18.3,163.1,93.4c43.3,75.1,139.4,100.8,214.5,57.5
	C452.6,107.5,478.4,11.5,435-63.6z M355.6,24.5L274,71.6c-7.5,4.3-13.7,0.8-13.7-7.9l-0.4-95.2c0-8.7,6-12.2,13.5-7.8l82.2,47.9
	C363,12.9,363,20,355.6,24.5z"/>
</symbol><symbol id="plus" viewBox="8 114.9 612 612"><style type="text/css"/><path d="M314 114.9c-169 0-306 137-306 306s137 306 306 306 306-137 306-306-137-306-306-306zm0 573.7c-147.9 0-267.8-119.9-267.8-267.8S166.1 153.1 314 153.1 581.8 273 581.8 420.9 461.9 688.6 314 688.6zm114.8-286.8h-95.6v-95.6c0-10.6-8.6-19.1-19.1-19.1s-19.1 8.6-19.1 19.1v95.6h-95.6c-10.6 0-19.1 8.6-19.1 19.1s8.6 19.1 19.1 19.1H295v95.6c0 10.6 8.6 19.1 19.1 19.1s19.1-8.6 19.1-19.1V440h95.6c10.6 0 19.1-8.6 19.1-19.1s-8.6-19.1-19.1-19.1z"/></symbol><symbol id="research" viewBox="0 0 352.467 352.467">
<g>
	<g>
		<path d="M323.596,72.911L252.879,2.196C251.473,0.79,249.565,0,247.576,0H34.174c-4.142,0-7.5,3.357-7.5,7.5v337.467
			c0,4.143,3.358,7.5,7.5,7.5h284.119c4.142,0,7.5-3.357,7.5-7.5V78.215C325.793,76.226,325.003,74.318,323.596,72.911z
			 M255.076,25.606l45.11,45.108h-45.11V25.606z M41.674,337.467V15h198.402v63.215c0,4.143,3.358,7.5,7.5,7.5h63.217v251.752
			H41.674z"/>
		<g>
			<g>
				<path d="M119.785,123.357H67.081c-4.142,0-7.5-3.357-7.5-7.5V63.152c0-4.143,3.358-7.5,7.5-7.5h52.704
					c4.142,0,7.5,3.357,7.5,7.5v52.705C127.285,120,123.927,123.357,119.785,123.357z M74.581,108.357h37.704V70.652H74.581V108.357
					z"/>
			</g>
			<g>
				<g>
					<path d="M208.24,82.715h-64.36c-4.142,0-7.5-3.357-7.5-7.5c0-4.143,3.358-7.5,7.5-7.5h64.36c4.142,0,7.5,3.357,7.5,7.5
						C215.74,79.357,212.382,82.715,208.24,82.715z"/>
				</g>
				<g>
					<path d="M192.183,111.295H143.88c-4.142,0-7.5-3.357-7.5-7.5s3.358-7.5,7.5-7.5h48.303c4.142,0,7.5,3.357,7.5,7.5
						S196.325,111.295,192.183,111.295z"/>
				</g>
			</g>
		</g>
		<g>
			<g>
				<path d="M119.785,217.703H67.081c-4.142,0-7.5-3.357-7.5-7.5v-52.705c0-4.143,3.358-7.5,7.5-7.5h52.704
					c4.142,0,7.5,3.357,7.5,7.5v52.705C127.285,214.346,123.927,217.703,119.785,217.703z M74.581,202.703h37.704v-37.705H74.581
					V202.703z"/>
			</g>
			<g>
				<g>
					<path d="M246.424,177.061H143.88c-4.142,0-7.5-3.357-7.5-7.5c0-4.143,3.358-7.5,7.5-7.5h102.544c4.142,0,7.5,3.357,7.5,7.5
						C253.924,173.703,250.566,177.061,246.424,177.061z"/>
				</g>
				<g>
					<path d="M212.117,205.641H143.88c-4.142,0-7.5-3.357-7.5-7.5s3.358-7.5,7.5-7.5h68.237c4.142,0,7.5,3.357,7.5,7.5
						S216.259,205.641,212.117,205.641z"/>
				</g>
			</g>
		</g>
		<g>
			<g>
				<path d="M119.785,312.049H67.081c-4.142,0-7.5-3.357-7.5-7.5v-52.705c0-4.143,3.358-7.5,7.5-7.5h52.704
					c4.142,0,7.5,3.357,7.5,7.5v52.705C127.285,308.691,123.927,312.049,119.785,312.049z M74.581,297.049h37.704v-37.705H74.581
					V297.049z"/>
			</g>
			<g>
				<g>
					<path d="M258.96,271.406H143.88c-4.142,0-7.5-3.357-7.5-7.5s3.358-7.5,7.5-7.5h115.08c4.142,0,7.5,3.357,7.5,7.5
						S263.102,271.406,258.96,271.406z"/>
				</g>
				<g>
					<path d="M240.486,299.986H143.88c-4.142,0-7.5-3.357-7.5-7.5s3.358-7.5,7.5-7.5h96.606c4.142,0,7.5,3.357,7.5,7.5
						S244.628,299.986,240.486,299.986z"/>
				</g>
			</g>
		</g>
	</g>
</g>

</symbol><symbol id="rocket" viewBox="0 0 612 612">
<g>
	<path d="M85.3,502.8c13.2,0,23.9,10.7,23.9,23.9c0,10.4-7,19.8-16.9,22.9l-42.8,13l13-42.8C65.5,509.8,74.9,502.8,85.3,502.8
		 M85.3,478.8c-21.6,0-39.9,14.3-45.8,34l-20.8,68.6c-0.3,0.9-0.4,1.8-0.4,2.8c0,5.3,4.3,9.6,9.6,9.6c1,0,1.9-0.2,2.8-0.4l68.6-20.8
		c19.6-6,34-24.2,34-45.8C133.2,500.2,111.8,478.8,85.3,478.8L85.3,478.8z"/>
</g>
<g>
	<path d="M583.3,24c1.6,0,2.7,0.8,3.3,1.4c0.6,0.6,1.3,1.7,1.3,3.2l0,0v0c0,95.6-4.3,195.4-55.2,273.7c-25,38.4-61,73.2-107.2,103.6
		l-10,6.6l-0.7,12c-1.9,31.8-11.1,63.3-26.4,91.3c-15.4,28.1-37.3,52.7-63.3,71.2c-0.8,0.6-1.8,0.9-2.8,0.9c-0.6,0-1.2-0.1-1.8-0.3
		c-1.5-0.7-2.6-2-2.9-3.6c-4.8-28.4-16.9-59.2-36-91.5l-9.3-15.8l-17.7,4.8c-18.9,5.2-36.7,9.2-52.9,12c-0.2,0-0.5,0.1-0.8,0.1
		c-1.3,0-2.4-0.5-3.3-1.4l-78-77.9c-1.1-1.1-1.5-2.6-1.3-4.1c2.8-16.2,6.8-33.9,12-52.8l4.8-17.7l-15.8-9.3
		c-32.3-19.1-63.1-31.2-91.5-36c-1.6-0.3-3-1.3-3.6-2.9c-0.6-1.5-0.4-3.2,0.5-4.6c18.5-26,43.2-47.9,71.2-63.3
		c27.9-15.4,59.5-24.5,91.3-26.5l12-0.7l6.6-10c30.3-46.1,65.2-82.2,103.6-107.2c35.4-23,76.9-38.2,126.9-46.5
		C480.6,25.5,527.1,24,583.3,24 M410.9,273c39.6,0,71.9-32.2,71.9-71.9c0-39.6-32.2-71.9-71.9-71.9S339,161.5,339,201.1
		C339,240.7,371.3,273,410.9,273 M583.3,0C480,0,380.3,4.5,296.5,59.1c-44.2,28.8-80.9,69.1-110.5,114.1
		C114.2,177.6,47.5,213.9,5.3,273c-5.7,8.1-6.9,18.5-3.2,27.7c3.8,9.2,12,15.7,21.8,17.4c25.8,4.3,54.4,15.9,83.3,33
		c-5.2,19.1-9.5,37.7-12.5,55c-1.6,9.2,1.4,18.6,8,25.2l77.9,77.9c5.4,5.4,12.8,8.4,20.3,8.4c1.6,0,3.3-0.1,4.9-0.4
		c17.4-3,35.9-7.3,55.1-12.5c17.1,28.9,28.7,57.5,33,83.3c1.6,9.8,8.2,18,17.4,21.8c3.5,1.5,7.3,2.2,11,2.2c5.9,0,11.7-1.8,16.7-5.3
		c59.1-42.1,95.4-108.9,99.7-180.6c45-29.6,85.3-66.3,114.1-110.6C607.4,231.7,612,127.9,612,28.7C612,12.9,599.1,0,583.3,0L583.3,0
		z M410.9,249c-26.4,0-47.9-21.4-47.9-47.9c0-26.4,21.4-47.9,47.9-47.9c26.4,0,47.9,21.4,47.9,47.9C458.8,227.6,437.4,249,410.9,249
		L410.9,249z"/>
</g>
</symbol><symbol id="signup" viewBox="0 0 385.664 385.664">
<g>
	<g>
		<path d="M383.474,134.394l-74-34c-4-2-5.506,0.934-6,2l-71.121,151.974c-0.498,1.065-0.689,2.877-0.428,4.022l15.379,67.14
			c0.264,1.146,1.334,1.646,2.379,1.108l61.287-31.432c1.049-0.537,2.311-1.848,2.807-2.914l70.697-151.899
			C384.97,139.328,386.474,136.394,383.474,134.394z M291.158,292.252c-1.025,0.574-2.729,1.473-3.775,2.01
			c0,0-16.982,8.709-23.275,11.937c-3.156,1.618-9.541-0.941-10.332-4.399c-1.605-7.011-5.945-25.959-5.945-25.959
			c-0.264-1.146-0.654-3.031-0.891-4.183c-0.465-2.263,0.535-4.263,3.471-3.632c1.148,0.248,2.855,1.207,3.922,1.703l33.543,15.623
			c1.064,0.498,2.836,1.272,3.826,1.906C293.474,288.395,294.474,290.395,291.158,292.252z"/>
		<path d="M350.474,256.395c-3.021,6.59-6.773,14.531-10.982,23.85c-1.188,2.632-2.568,4.463-2.568,11.264
			c0,17.719,0,70.871,0,70.871c0,3.273-2.766,6.041-6.043,6.041H23.658c-3.273,0-6.041-2.768-6.041-6.041V23.282
			c0-3.33,2.709-6.041,6.041-6.041H330.88c3.334,0,6.043,2.711,6.043,6.041c0,0,0,40.587,0,53.477c0,3.636,1.553,5.636,3.35,6.403
			c2.52,1.074,7.615,3.073,10.164,4.07c1.494,0.584,3.729-0.837,3.729-5.223c0-14.682,0-58.726,0-58.726
			C354.166,10.445,343.722,0,330.88,0H23.658C10.82,0,0.373,10.445,0.373,23.283v339.098c0,12.84,10.447,23.283,23.285,23.283
			H330.88c12.842,0,23.285-10.443,23.285-23.283c0,0,0-78.154,0-104.205C354.166,253.395,351.21,254.789,350.474,256.395z"/>
		<path d="M269.505,120.499v-8.739c0-2.339-1.912-4.252-4.252-4.252H75.557c-2.339,0-4.252,1.913-4.252,4.252v8.739
			c0,2.339,1.913,4.252,4.252,4.252h189.697C267.593,124.751,269.505,122.838,269.505,120.499z"/>
		<path d="M232.738,197.025v-8.739c0-2.338-1.912-4.252-4.252-4.252H75.557c-2.339,0-4.252,1.914-4.252,4.252v8.739
			c0,2.338,1.913,4.252,4.252,4.252h152.929C230.826,201.277,232.738,199.363,232.738,197.025z"/>
		<path d="M91.901,307.545c-1.904,0-3.461,1.559-3.461,3.461v10.321c0,1.903,1.557,3.461,3.461,3.461h131.032
			c1.903,0,3.461-1.558,3.461-3.461v-10.321c0-1.902-1.558-3.461-3.461-3.461H91.901z"/>
	</g>
</g>

</symbol><symbol id="support" viewBox="230 -230 490 490">
<g>
	<g>
		<g>
			<path d="M647,87.8c16.8,9.4,28.1,17.4,30.5,20.5c7.2,9.3,15.7,38.1,22.3,75H526.3c6.7-37,15.1-65.7,22.3-75
				c2.4-3.1,13.6-11,30.4-20.4c4.5,2.8,9.2,5,14.1,6.6l5.4,14.2l14.5,38.1l14.5-38.1l5.4-14.2C637.8,92.8,642.5,90.6,647,87.8
				 M646.3,70.3c-0.9,0-1.8,0.3-2.5,0.8c-6.3,5-13.3,8.3-20.6,9.9c-1.3,0.3-2.3,1.2-2.8,2.5l-7.5,19.7l-7.5-19.7
				c-0.5-1.2-1.5-2.2-2.8-2.5c-7.3-1.6-14.3-5-20.6-9.9c-0.6-0.5-1.5-0.8-2.3-0.8c-0.6,0-1.3,0.2-1.9,0.5c-5.7,3-34.3,18.6-41.6,28
				c-14,18.2-24,72.8-27.6,95.4c-0.2,1.2,0.1,2.3,0.9,3.2c0.8,0.9,1.9,1.4,3,1.4h200.9c1.2,0,2.3-0.5,3-1.4c0.8-0.9,1.1-2,0.9-3.2
				c-3.6-22.7-13.6-77.3-27.6-95.4c-7.2-9.4-35.9-25-41.6-28C647.6,70.5,647,70.3,646.3,70.3L646.3,70.3z"/>
		</g>
	</g>
	<g>
		<g>
			<path d="M613.1-37c26.7,0,32.6,8.8,34.5,11.7C653.2-17,654-3,654,10.9c0,26.4-18.3,47.9-40.9,47.9c-22.5,0-40.9-21.5-40.9-47.9
				c0-2,0-3.9,0.1-5.7l0.2-5.8l0.5-4.9c1.1-11.2,3.7-18.6,8.3-23.1C587.1-34.2,597.8-37,613.1-37 M613.1-52.5
				c-42.2,0-53.1,19.3-55.6,45.6c-6.2,3.3-13.6,8.8-16.9,17.2c-3.2,8.2-1.8,17.3,4,27.2c-0.4,1.8-0.1,3.7,1,5.3l2.3,3.4
				c1.2,1.8,3.3,2.8,5.4,2.8c1.3,0,2.7-0.4,3.8-1.2c1.5-1,2.4-2.5,2.7-4.3c0.3-1.8-0.1-3.5-1.1-5l-2.3-3.4c-0.9-1.3-2.2-2.2-3.6-2.6
				c-4.2-7.1-5.3-13.4-3.3-18.7c1.4-3.7,4.2-6.7,7.2-9c-0.1,2-0.1,4-0.1,6.1c0,35,25.2,63.4,56.4,63.4c31.1,0,56.4-28.4,56.4-63.4
				C669.4-24.2,664.4-52.5,613.1-52.5L613.1-52.5z"/>
		</g>
	</g>
	<path d="M471.5-35.5l-27.8-47.2c-1.5-2.6-4.3-4.1-7.4-4.1c-3,0.1-5.7,1.8-7.1,4.4l-41.8,80l-23.9-30c-1.6-2-4-3.1-6.5-3.1h-62.6
		c-4.6,0-8.3,3.7-8.3,8.3c0,4.6,3.7,8.3,8.3,8.3H353L382.4,18c1.6,2,4,3.1,6.5,3.1c0.3,0,0.5,0,0.8-0.1c2.8-0.3,5.3-1.9,6.5-4.4
		l40.8-78L459.6-23c1.5,2.5,4.2,4.1,7.1,4.1h68.3c4.6,0,8.3-3.7,8.3-8.3c0-4.6-3.7-8.3-8.3-8.3L471.5-35.5L471.5-35.5z"/>
</g>
<path d="M497.6,114.5h18c2.2-6.6,5-17.9,10.7-23.3h-46.4h-82.2H255.8v-234.6H624v82.9c3.2-0.2,13.6-0.8,20.6,2.5v-96.4
	c0-6.1-5-11.1-11.1-11.1H244.2c-6.1,0-11.1,5-11.1,11.1v257.8c0,6.1,5,11.1,11.1,11.1h137.6c-2.5,14.8-8.1,41.1-20,66.9
	c-1.6,3.4-1.3,7.4,0.8,10.6c2,3.2,5.5,5.1,9.3,5.1h124.8l2.3-21H391.2c0,0,5.3-21.2,14.6-61.6"/>
</symbol><symbol id="twitter" viewBox="0 0 49.652 49.652">
<g>
	<g>
		<path d="M24.826,0C11.137,0,0,11.137,0,24.826c0,13.688,11.137,24.826,24.826,24.826c13.688,0,24.826-11.138,24.826-24.826
			C49.652,11.137,38.516,0,24.826,0z M35.901,19.144c0.011,0.246,0.017,0.494,0.017,0.742c0,7.551-5.746,16.255-16.259,16.255
			c-3.227,0-6.231-0.943-8.759-2.565c0.447,0.053,0.902,0.08,1.363,0.08c2.678,0,5.141-0.914,7.097-2.446
			c-2.5-0.046-4.611-1.698-5.338-3.969c0.348,0.066,0.707,0.103,1.074,0.103c0.521,0,1.027-0.068,1.506-0.199
			c-2.614-0.524-4.583-2.833-4.583-5.603c0-0.024,0-0.049,0.001-0.072c0.77,0.427,1.651,0.685,2.587,0.714
			c-1.532-1.023-2.541-2.773-2.541-4.755c0-1.048,0.281-2.03,0.773-2.874c2.817,3.458,7.029,5.732,11.777,5.972
			c-0.098-0.419-0.147-0.854-0.147-1.303c0-3.155,2.558-5.714,5.713-5.714c1.644,0,3.127,0.694,4.171,1.804
			c1.303-0.256,2.523-0.73,3.63-1.387c-0.43,1.335-1.333,2.454-2.516,3.162c1.157-0.138,2.261-0.444,3.282-0.899
			C37.987,17.334,37.018,18.341,35.901,19.144z"/>
	</g>
</g>

</symbol></svg>